<?xml version="1.0" encoding="utf-8" standalone="no"?>
<!DOCTYPE svg PUBLIC "-//W3C//DTD SVG 1.1//EN"
  "http://www.w3.org/Graphics/SVG/1.1/DTD/svg11.dtd">
<svg xmlns:xlink="http://www.w3.org/1999/xlink" width="1379.52pt" height="714.96pt" viewBox="0 0 1379.52 714.96" xmlns="http://www.w3.org/2000/svg" version="1.1">
 <metadata>
  <rdf:RDF xmlns:dc="http://purl.org/dc/elements/1.1/" xmlns:cc="http://creativecommons.org/ns#" xmlns:rdf="http://www.w3.org/1999/02/22-rdf-syntax-ns#">
   <cc:Work>
    <dc:type rdf:resource="http://purl.org/dc/dcmitype/StillImage"/>
    <dc:date>2024-02-09T19:36:12.631965</dc:date>
    <dc:format>image/svg+xml</dc:format>
    <dc:creator>
     <cc:Agent>
      <dc:title>Matplotlib v3.8.2, https://matplotlib.org/</dc:title>
     </cc:Agent>
    </dc:creator>
   </cc:Work>
  </rdf:RDF>
 </metadata>
 <defs>
  <style type="text/css">*{stroke-linejoin: round; stroke-linecap: butt}</style>
 </defs>
 <g id="figure_1">
  <g id="patch_1">
   <path d="M 0 714.96 
L 1379.52 714.96 
L 1379.52 0 
L 0 0 
z
" style="fill: #ffffff"/>
  </g>
  <g id="axes_1">
   <g id="patch_2">
    <path d="M 172.44 636.3144 
L 658.407273 636.3144 
L 658.407273 464.724 
L 172.44 464.724 
z
" style="fill: #ffffff"/>
   </g>
   <g id="matplotlib.axis_1">
    <g id="xtick_1">
     <g id="line2d_1">
      <defs>
       <path id="mfa5f30872b" d="M 0 0 
L 0 3.5 
" style="stroke: #000000; stroke-width: 0.8"/>
      </defs>
      <g>
       <use xlink:href="#mfa5f30872b" x="194.529421" y="636.3144" style="stroke: #000000; stroke-width: 0.8"/>
      </g>
     </g>
     <g id="text_1">
      <!-- $\mathdefault{0}$ -->
      <g transform="translate(190.871303 653.692125) scale(0.15 -0.15)">
       <defs>
        <path id="CMR17-30" d="M 2688 2038 
C 2688 2430 2682 3099 2413 3613 
C 2176 4063 1798 4224 1466 4224 
C 1158 4224 768 4082 525 3620 
C 269 3137 243 2539 243 2038 
C 243 1671 250 1112 448 623 
C 723 -39 1216 -128 1466 -128 
C 1760 -128 2208 -7 2470 604 
C 2662 1048 2688 1568 2688 2038 
z
M 1466 -26 
C 1056 -26 813 328 723 816 
C 653 1196 653 1749 653 2109 
C 653 2604 653 3015 736 3407 
C 858 3954 1216 4121 1466 4121 
C 1728 4121 2067 3947 2189 3420 
C 2272 3054 2278 2623 2278 2109 
C 2278 1691 2278 1176 2202 797 
C 2067 96 1690 -26 1466 -26 
z
" transform="scale(0.015625)"/>
       </defs>
       <use xlink:href="#CMR17-30" transform="scale(0.996264)"/>
      </g>
     </g>
    </g>
    <g id="xtick_2">
     <g id="line2d_2">
      <g>
       <use xlink:href="#mfa5f30872b" x="273.845118" y="636.3144" style="stroke: #000000; stroke-width: 0.8"/>
      </g>
     </g>
     <g id="text_2">
      <!-- $\mathdefault{100}$ -->
      <g transform="translate(262.870761 653.692125) scale(0.15 -0.15)">
       <defs>
        <path id="CMR17-31" d="M 1702 4083 
C 1702 4217 1696 4224 1606 4224 
C 1357 3927 979 3833 621 3820 
C 602 3820 570 3820 563 3808 
C 557 3795 557 3782 557 3648 
C 755 3648 1088 3686 1344 3839 
L 1344 467 
C 1344 243 1331 166 781 166 
L 589 166 
L 589 0 
C 896 6 1216 12 1523 12 
C 1830 12 2150 6 2458 0 
L 2458 166 
L 2266 166 
C 1715 166 1702 236 1702 467 
L 1702 4083 
z
" transform="scale(0.015625)"/>
       </defs>
       <use xlink:href="#CMR17-31" transform="scale(0.996264)"/>
       <use xlink:href="#CMR17-30" transform="translate(45.690477 0) scale(0.996264)"/>
       <use xlink:href="#CMR17-30" transform="translate(91.380954 0) scale(0.996264)"/>
      </g>
     </g>
    </g>
    <g id="xtick_3">
     <g id="line2d_3">
      <g>
       <use xlink:href="#mfa5f30872b" x="353.160815" y="636.3144" style="stroke: #000000; stroke-width: 0.8"/>
      </g>
     </g>
     <g id="text_3">
      <!-- $\mathdefault{200}$ -->
      <g transform="translate(342.186458 653.692125) scale(0.15 -0.15)">
       <defs>
        <path id="CMR17-32" d="M 2669 990 
L 2554 990 
C 2490 537 2438 460 2413 422 
C 2381 371 1920 371 1830 371 
L 602 371 
C 832 620 1280 1073 1824 1596 
C 2214 1966 2669 2400 2669 3033 
C 2669 3788 2067 4224 1395 4224 
C 691 4224 262 3603 262 3027 
C 262 2777 448 2745 525 2745 
C 589 2745 781 2783 781 3007 
C 781 3206 614 3264 525 3264 
C 486 3264 448 3257 422 3244 
C 544 3788 915 4057 1306 4057 
C 1862 4057 2227 3616 2227 3033 
C 2227 2477 1901 1998 1536 1583 
L 262 147 
L 262 0 
L 2515 0 
L 2669 990 
z
" transform="scale(0.015625)"/>
       </defs>
       <use xlink:href="#CMR17-32" transform="scale(0.996264)"/>
       <use xlink:href="#CMR17-30" transform="translate(45.690477 0) scale(0.996264)"/>
       <use xlink:href="#CMR17-30" transform="translate(91.380954 0) scale(0.996264)"/>
      </g>
     </g>
    </g>
    <g id="xtick_4">
     <g id="line2d_4">
      <g>
       <use xlink:href="#mfa5f30872b" x="432.476511" y="636.3144" style="stroke: #000000; stroke-width: 0.8"/>
      </g>
     </g>
     <g id="text_4">
      <!-- $\mathdefault{300}$ -->
      <g transform="translate(421.502154 653.692125) scale(0.15 -0.15)">
       <defs>
        <path id="CMR17-33" d="M 1414 2176 
C 1984 2176 2234 1673 2234 1094 
C 2234 322 1824 25 1453 25 
C 1114 25 563 193 390 691 
C 422 678 454 678 486 678 
C 640 678 755 780 755 947 
C 755 1132 614 1216 486 1216 
C 378 1216 211 1164 211 927 
C 211 335 787 -128 1466 -128 
C 2176 -128 2720 432 2720 1087 
C 2720 1718 2208 2176 1600 2246 
C 2086 2347 2554 2776 2554 3353 
C 2554 3856 2048 4224 1472 4224 
C 890 4224 378 3862 378 3347 
C 378 3123 544 3084 627 3084 
C 762 3084 877 3167 877 3334 
C 877 3500 762 3584 627 3584 
C 602 3584 570 3584 544 3571 
C 730 3999 1235 4076 1459 4076 
C 1683 4076 2106 3966 2106 3347 
C 2106 3167 2080 2851 1862 2574 
C 1670 2329 1453 2316 1242 2297 
C 1210 2297 1062 2284 1037 2284 
C 992 2278 966 2272 966 2227 
C 966 2182 973 2176 1101 2176 
L 1414 2176 
z
" transform="scale(0.015625)"/>
       </defs>
       <use xlink:href="#CMR17-33" transform="scale(0.996264)"/>
       <use xlink:href="#CMR17-30" transform="translate(45.690477 0) scale(0.996264)"/>
       <use xlink:href="#CMR17-30" transform="translate(91.380954 0) scale(0.996264)"/>
      </g>
     </g>
    </g>
    <g id="xtick_5">
     <g id="line2d_5">
      <g>
       <use xlink:href="#mfa5f30872b" x="511.792208" y="636.3144" style="stroke: #000000; stroke-width: 0.8"/>
      </g>
     </g>
     <g id="text_5">
      <!-- $\mathdefault{400}$ -->
      <g transform="translate(500.817851 653.692125) scale(0.15 -0.15)">
       <defs>
        <path id="CMR17-34" d="M 2150 4147 
C 2150 4281 2144 4288 2029 4288 
L 128 1254 
L 128 1088 
L 1779 1088 
L 1779 460 
C 1779 230 1766 166 1318 166 
L 1197 166 
L 1197 0 
C 1402 12 1747 12 1965 12 
C 2182 12 2528 12 2733 0 
L 2733 166 
L 2611 166 
C 2163 166 2150 230 2150 460 
L 2150 1088 
L 2803 1088 
L 2803 1254 
L 2150 1254 
L 2150 4147 
z
M 1798 3723 
L 1798 1254 
L 256 1254 
L 1798 3723 
z
" transform="scale(0.015625)"/>
       </defs>
       <use xlink:href="#CMR17-34" transform="scale(0.996264)"/>
       <use xlink:href="#CMR17-30" transform="translate(45.690477 0) scale(0.996264)"/>
       <use xlink:href="#CMR17-30" transform="translate(91.380954 0) scale(0.996264)"/>
      </g>
     </g>
    </g>
    <g id="xtick_6">
     <g id="line2d_6">
      <g>
       <use xlink:href="#mfa5f30872b" x="591.107904" y="636.3144" style="stroke: #000000; stroke-width: 0.8"/>
      </g>
     </g>
     <g id="text_6">
      <!-- $\mathdefault{500}$ -->
      <g transform="translate(580.133547 653.692125) scale(0.15 -0.15)">
       <defs>
        <path id="CMR17-35" d="M 730 3750 
C 794 3724 1056 3641 1325 3641 
C 1920 3641 2246 3961 2432 4140 
C 2432 4191 2432 4224 2394 4224 
C 2387 4224 2374 4224 2323 4198 
C 2099 4102 1837 4032 1517 4032 
C 1325 4032 1037 4055 723 4191 
C 653 4224 640 4224 634 4224 
C 602 4224 595 4217 595 4090 
L 595 2231 
C 595 2113 595 2080 659 2080 
C 691 2080 704 2093 736 2139 
C 941 2435 1222 2560 1542 2560 
C 1766 2560 2246 2415 2246 1293 
C 2246 1087 2246 716 2054 422 
C 1894 159 1645 25 1370 25 
C 947 25 518 319 403 812 
C 429 806 480 793 506 793 
C 589 793 749 838 749 1036 
C 749 1209 627 1280 506 1280 
C 358 1280 262 1190 262 1011 
C 262 454 704 -128 1382 -128 
C 2042 -128 2669 441 2669 1267 
C 2669 2054 2170 2662 1549 2662 
C 1222 2662 947 2540 730 2304 
L 730 3750 
z
" transform="scale(0.015625)"/>
       </defs>
       <use xlink:href="#CMR17-35" transform="scale(0.996264)"/>
       <use xlink:href="#CMR17-30" transform="translate(45.690477 0) scale(0.996264)"/>
       <use xlink:href="#CMR17-30" transform="translate(91.380954 0) scale(0.996264)"/>
      </g>
     </g>
    </g>
    <g id="text_7">
     <!-- Sample [\#] -->
     <g transform="translate(379.655363 671.80584) scale(0.15 -0.15)">
      <defs>
       <path id="CMR17-53" d="M 2803 4351 
C 2803 4467 2797 4473 2758 4473 
C 2720 4473 2707 4447 2682 4390 
L 2490 3965 
C 2246 4320 1875 4480 1472 4480 
C 819 4480 294 3958 294 3301 
C 294 3101 339 2817 557 2546 
C 794 2250 1018 2198 1530 2063 
C 1722 2011 2042 1927 2106 1901 
C 2470 1747 2662 1360 2662 999 
C 2662 534 2336 38 1779 38 
C 1094 38 454 425 410 1328 
C 403 1431 397 1437 352 1437 
C 301 1437 294 1431 294 1302 
L 294 0 
C 294 -116 301 -122 339 -122 
C 384 -122 397 -90 486 109 
C 493 128 493 141 614 386 
C 934 -39 1472 -128 1779 -128 
C 2477 -128 2970 457 2970 1141 
C 2970 1476 2848 1734 2778 1850 
C 2509 2263 2221 2340 1914 2417 
C 1869 2437 1856 2437 1498 2527 
C 1152 2617 1005 2662 845 2836 
C 666 3036 602 3243 602 3449 
C 602 3868 934 4326 1478 4326 
C 2157 4326 2579 3842 2675 3036 
C 2694 2920 2701 2914 2746 2914 
C 2803 2914 2803 2933 2803 3043 
L 2803 4351 
z
" transform="scale(0.015625)"/>
       <path id="CMR17-61" d="M 2304 1656 
C 2304 2048 2304 2275 2035 2534 
C 1798 2751 1523 2816 1306 2816 
C 800 2816 435 2408 435 1977 
C 435 1740 627 1728 666 1728 
C 749 1728 896 1779 896 1958 
C 896 2118 774 2188 666 2188 
C 640 2188 608 2182 589 2176 
C 723 2594 1069 2713 1293 2713 
C 1613 2713 1965 2421 1965 1875 
L 1965 1632 
C 1587 1619 1133 1568 774 1373 
C 371 1147 256 822 256 576 
C 256 77 832 -64 1171 -64 
C 1523 -64 1850 135 1990 505 
C 2003 219 2182 -39 2464 -39 
C 2598 -39 2938 51 2938 563 
L 2938 926 
L 2822 926 
L 2822 557 
C 2822 161 2650 109 2566 109 
C 2304 109 2304 446 2304 732 
L 2304 1656 
z
M 1965 887 
C 1965 323 1568 38 1216 38 
C 896 38 646 278 646 576 
C 646 771 730 1114 1101 1322 
C 1408 1497 1760 1523 1965 1536 
L 1965 887 
z
" transform="scale(0.015625)"/>
       <path id="CMR17-6d" d="M 4326 1954 
C 4326 2276 4269 2816 3507 2816 
C 3072 2816 2771 2520 2656 2173 
L 2650 2173 
C 2573 2700 2195 2816 1837 2816 
C 1331 2816 1069 2424 973 2166 
L 966 2166 
L 966 2816 
L 211 2745 
L 211 2578 
C 589 2578 646 2540 646 2231 
L 646 443 
C 646 198 621 166 211 166 
L 211 0 
C 365 12 646 12 813 12 
C 979 12 1267 12 1421 0 
L 1421 166 
C 1011 166 986 192 986 443 
L 986 1678 
C 986 2269 1344 2713 1792 2713 
C 2266 2713 2317 2289 2317 1980 
L 2317 443 
C 2317 198 2291 166 1882 166 
L 1882 0 
C 2035 12 2317 12 2483 12 
C 2650 12 2938 12 3091 0 
L 3091 166 
C 2682 166 2656 192 2656 443 
L 2656 1678 
C 2656 2269 3014 2713 3462 2713 
C 3936 2713 3987 2289 3987 1980 
L 3987 443 
C 3987 198 3962 166 3552 166 
L 3552 0 
C 3706 12 3987 12 4154 12 
C 4320 12 4608 12 4762 0 
L 4762 166 
C 4352 166 4326 192 4326 443 
L 4326 1954 
z
" transform="scale(0.015625)"/>
       <path id="CMR17-70" d="M 1408 -1114 
C 998 -1114 973 -1088 973 -834 
L 973 380 
C 1158 109 1427 -64 1766 -64 
C 2406 -64 3053 503 3053 1382 
C 3053 2196 2496 2816 1837 2816 
C 1453 2816 1139 2603 960 2345 
L 960 2816 
L 198 2745 
L 198 2577 
C 576 2577 634 2539 634 2228 
L 634 -834 
C 634 -1081 608 -1114 198 -1114 
L 198 -1280 
C 352 -1268 634 -1268 800 -1268 
C 966 -1268 1254 -1268 1408 -1280 
L 1408 -1114 
z
M 973 2015 
C 973 2106 973 2241 1222 2481 
C 1254 2506 1472 2700 1792 2700 
C 2259 2700 2643 2112 2643 1376 
C 2643 639 2234 38 1728 38 
C 1498 38 1248 148 1056 451 
C 973 594 973 632 973 736 
L 973 2015 
z
" transform="scale(0.015625)"/>
       <path id="CMR17-6c" d="M 979 4416 
L 218 4345 
L 218 4179 
C 595 4179 653 4141 653 3835 
L 653 439 
C 653 198 627 166 218 166 
L 218 0 
C 371 12 653 12 813 12 
C 979 12 1261 12 1414 0 
L 1414 166 
C 1005 166 979 191 979 439 
L 979 4416 
z
" transform="scale(0.015625)"/>
       <path id="CMR17-65" d="M 2438 1503 
C 2464 1529 2464 1542 2464 1606 
C 2464 2251 2118 2816 1389 2816 
C 710 2816 173 2175 173 1394 
C 173 554 781 -64 1459 -64 
C 2176 -64 2458 619 2458 755 
C 2458 800 2419 800 2406 800 
C 2362 800 2355 787 2330 709 
C 2189 270 1837 51 1504 51 
C 1229 51 954 206 781 490 
C 582 819 582 1200 582 1503 
L 2438 1503 
z
M 589 1600 
C 634 2511 1126 2713 1382 2713 
C 1818 2713 2112 2308 2118 1600 
L 589 1600 
z
" transform="scale(0.015625)"/>
       <path id="CMR17-5b" d="M 1504 -1600 
L 1504 -1376 
L 902 -1376 
L 902 4575 
L 1504 4575 
L 1504 4800 
L 678 4800 
L 678 -1600 
L 1504 -1600 
z
" transform="scale(0.015625)"/>
       <path id="CMR17-23" d="M 3104 896 
L 4422 896 
C 4531 896 4640 896 4640 1011 
C 4640 1120 4544 1120 4448 1120 
L 3168 1120 
L 3386 2015 
L 4448 2015 
C 4544 2015 4640 2015 4640 2124 
C 4640 2240 4531 2240 4422 2240 
L 3450 2240 
L 3942 4185 
C 3962 4249 3968 4281 3968 4300 
C 3968 4364 3917 4416 3853 4416 
C 3763 4416 3744 4326 3731 4275 
L 3219 2240 
L 2061 2240 
L 2554 4185 
C 2573 4249 2579 4281 2579 4300 
C 2579 4364 2528 4416 2464 4416 
C 2374 4416 2355 4326 2342 4275 
L 1830 2240 
L 512 2240 
C 403 2240 294 2240 294 2124 
C 294 2015 390 2015 486 2015 
L 1766 2015 
L 1549 1120 
L 486 1120 
C 390 1120 294 1120 294 1011 
C 294 896 403 896 512 896 
L 1485 896 
L 992 -1049 
C 973 -1114 966 -1146 966 -1165 
C 966 -1229 1018 -1280 1082 -1280 
C 1171 -1280 1190 -1191 1203 -1140 
L 1715 896 
L 2874 896 
L 2381 -1049 
C 2362 -1114 2355 -1146 2355 -1165 
C 2355 -1229 2406 -1280 2470 -1280 
C 2560 -1280 2579 -1191 2592 -1140 
L 3104 896 
z
M 1779 1120 
L 1997 2015 
L 3155 2015 
L 2938 1120 
L 1779 1120 
z
" transform="scale(0.015625)"/>
       <path id="CMR17-5d" d="M 915 4800 
L 90 4800 
L 90 4575 
L 691 4575 
L 691 -1376 
L 90 -1376 
L 90 -1600 
L 915 -1600 
L 915 4800 
z
" transform="scale(0.015625)"/>
      </defs>
      <use xlink:href="#CMR17-53" transform="scale(0.996264)"/>
      <use xlink:href="#CMR17-61" transform="translate(50.89537 0) scale(0.996264)"/>
      <use xlink:href="#CMR17-6d" transform="translate(96.585847 0) scale(0.996264)"/>
      <use xlink:href="#CMR17-70" transform="translate(173.505437 0) scale(0.996264)"/>
      <use xlink:href="#CMR17-6c" transform="translate(224.400807 0) scale(0.996264)"/>
      <use xlink:href="#CMR17-65" transform="translate(249.271865 0) scale(0.996264)"/>
      <use xlink:href="#CMR17-5b" transform="translate(319.833492 0) scale(0.996264)"/>
      <use xlink:href="#CMR17-23" transform="translate(344.70455 0) scale(0.996264)"/>
      <use xlink:href="#CMR17-5d" transform="translate(421.62414 0) scale(0.996264)"/>
     </g>
    </g>
   </g>
   <g id="matplotlib.axis_2">
    <g id="ytick_1">
     <g id="line2d_7">
      <defs>
       <path id="m9c5d71b965" d="M 0 0 
L -3.5 0 
" style="stroke: #000000; stroke-width: 0.8"/>
      </defs>
      <g>
       <use xlink:href="#m9c5d71b965" x="172.44" y="628.910393" style="stroke: #000000; stroke-width: 0.8"/>
      </g>
     </g>
     <g id="text_8">
      <!-- $\mathdefault{0}$ -->
      <g transform="translate(158.123762 634.099256) scale(0.15 -0.15)">
       <use xlink:href="#CMR17-30" transform="scale(0.996264)"/>
      </g>
     </g>
    </g>
    <g id="ytick_2">
     <g id="line2d_8">
      <g>
       <use xlink:href="#m9c5d71b965" x="172.44" y="575.166462" style="stroke: #000000; stroke-width: 0.8"/>
      </g>
     </g>
     <g id="text_9">
      <!-- $\mathdefault{10000}$ -->
      <g transform="translate(128.858811 580.355325) scale(0.15 -0.15)">
       <use xlink:href="#CMR17-31" transform="scale(0.996264)"/>
       <use xlink:href="#CMR17-30" transform="translate(45.690477 0) scale(0.996264)"/>
       <use xlink:href="#CMR17-30" transform="translate(91.380954 0) scale(0.996264)"/>
       <use xlink:href="#CMR17-30" transform="translate(137.071431 0) scale(0.996264)"/>
       <use xlink:href="#CMR17-30" transform="translate(182.761908 0) scale(0.996264)"/>
      </g>
     </g>
    </g>
    <g id="ytick_3">
     <g id="line2d_9">
      <g>
       <use xlink:href="#m9c5d71b965" x="172.44" y="521.422532" style="stroke: #000000; stroke-width: 0.8"/>
      </g>
     </g>
     <g id="text_10">
      <!-- $\mathdefault{20000}$ -->
      <g transform="translate(128.858811 526.611394) scale(0.15 -0.15)">
       <use xlink:href="#CMR17-32" transform="scale(0.996264)"/>
       <use xlink:href="#CMR17-30" transform="translate(45.690477 0) scale(0.996264)"/>
       <use xlink:href="#CMR17-30" transform="translate(91.380954 0) scale(0.996264)"/>
       <use xlink:href="#CMR17-30" transform="translate(137.071431 0) scale(0.996264)"/>
       <use xlink:href="#CMR17-30" transform="translate(182.761908 0) scale(0.996264)"/>
      </g>
     </g>
    </g>
    <g id="ytick_4">
     <g id="line2d_10">
      <g>
       <use xlink:href="#m9c5d71b965" x="172.44" y="467.678601" style="stroke: #000000; stroke-width: 0.8"/>
      </g>
     </g>
     <g id="text_11">
      <!-- $\mathdefault{30000}$ -->
      <g transform="translate(128.858811 472.867463) scale(0.15 -0.15)">
       <use xlink:href="#CMR17-33" transform="scale(0.996264)"/>
       <use xlink:href="#CMR17-30" transform="translate(45.690477 0) scale(0.996264)"/>
       <use xlink:href="#CMR17-30" transform="translate(91.380954 0) scale(0.996264)"/>
       <use xlink:href="#CMR17-30" transform="translate(137.071431 0) scale(0.996264)"/>
       <use xlink:href="#CMR17-30" transform="translate(182.761908 0) scale(0.996264)"/>
      </g>
     </g>
    </g>
    <g id="text_12">
     <!-- Amplitude [ADC Value] -->
     <g transform="translate(121.122821 627.635478) rotate(-90) scale(0.15 -0.15)">
      <defs>
       <path id="CMR17-41" d="M 2323 4441 
C 2291 4524 2278 4544 2214 4544 
C 2150 4544 2138 4524 2106 4441 
L 749 580 
C 627 236 371 166 147 166 
L 147 0 
C 262 12 518 12 640 12 
C 800 12 1056 12 1210 0 
L 1210 166 
C 909 179 864 382 864 459 
C 864 516 877 548 890 586 
L 1229 1536 
L 2906 1536 
L 3290 453 
C 3322 376 3322 363 3322 338 
C 3322 166 3046 166 2925 166 
L 2925 0 
C 3110 12 3443 12 3642 12 
C 3808 12 4128 12 4282 0 
L 4282 166 
C 3942 166 3827 166 3744 402 
L 2323 4441 
z
M 2067 3924 
L 2848 1702 
L 1286 1702 
L 2067 3924 
z
" transform="scale(0.015625)"/>
       <path id="CMR17-69" d="M 992 3961 
C 992 4102 877 4224 730 4224 
C 589 4224 467 4108 467 3961 
C 467 3820 582 3699 730 3699 
C 870 3699 992 3814 992 3961 
z
M 243 2745 
L 243 2579 
C 602 2579 653 2540 653 2231 
L 653 443 
C 653 198 627 166 218 166 
L 218 0 
C 371 12 646 12 806 12 
C 960 12 1222 12 1370 0 
L 1370 166 
C 992 166 979 205 979 436 
L 979 2816 
L 243 2745 
z
" transform="scale(0.015625)"/>
       <path id="CMR17-74" d="M 966 2585 
L 1862 2585 
L 1862 2752 
L 966 2752 
L 966 3968 
L 851 3968 
C 838 3292 614 2700 70 2687 
L 70 2585 
L 627 2585 
L 627 778 
C 627 655 627 -64 1370 -64 
C 1747 -64 1965 308 1965 784 
L 1965 1151 
L 1850 1151 
L 1850 790 
C 1850 347 1677 51 1408 51 
C 1222 51 966 179 966 765 
L 966 2585 
z
" transform="scale(0.015625)"/>
       <path id="CMR17-75" d="M 1882 2745 
L 1882 2579 
C 2259 2579 2317 2540 2317 2229 
L 2317 1053 
C 2317 510 2029 38 1555 38 
C 1030 38 986 355 986 691 
L 986 2816 
L 211 2745 
L 211 2579 
C 467 2579 640 2579 646 2320 
L 646 1079 
C 646 646 646 368 813 187 
C 896 103 1056 -64 1517 -64 
C 2061 -64 2272 400 2323 536 
L 2330 536 
L 2330 -64 
L 3091 -13 
L 3091 154 
C 2714 154 2656 193 2656 503 
L 2656 2816 
L 1882 2745 
z
" transform="scale(0.015625)"/>
       <path id="CMR17-64" d="M 1869 4345 
L 1869 4179 
C 2246 4179 2304 4141 2304 3843 
L 2304 2371 
C 2278 2403 2016 2816 1498 2816 
C 845 2816 211 2228 211 1376 
C 211 529 806 -64 1434 -64 
C 1978 -64 2259 361 2291 406 
L 2291 -64 
L 3066 -13 
L 3066 154 
C 2688 154 2630 193 2630 503 
L 2630 4416 
L 1869 4345 
z
M 2291 762 
C 2291 568 2176 393 2029 264 
C 1811 70 1594 38 1472 38 
C 1286 38 621 135 621 1369 
C 621 2636 1363 2713 1530 2713 
C 1824 2713 2061 2545 2208 2313 
C 2291 2177 2291 2157 2291 2041 
L 2291 762 
z
" transform="scale(0.015625)"/>
       <path id="CMR17-44" d="M 333 4352 
L 333 4185 
C 774 4185 845 4185 845 3898 
L 845 453 
C 845 166 774 166 333 166 
L 333 0 
L 2368 0 
C 3398 0 4224 943 4224 2140 
C 4224 3344 3411 4352 2368 4352 
L 333 4352 
z
M 1523 166 
C 1267 166 1254 198 1254 414 
L 1254 3936 
C 1254 4153 1267 4185 1523 4185 
L 2240 4185 
C 2771 4185 3750 3873 3750 2140 
C 3750 1242 3488 879 3366 707 
C 3213 510 2848 166 2240 166 
L 1523 166 
z
" transform="scale(0.015625)"/>
       <path id="CMR17-43" d="M 3974 4351 
C 3974 4467 3968 4473 3930 4473 
C 3904 4473 3898 4467 3853 4390 
L 3571 3849 
C 3258 4249 2874 4480 2381 4480 
C 1286 4480 294 3507 294 2179 
C 294 837 1286 -128 2387 -128 
C 3366 -128 3974 741 3974 1482 
C 3974 1547 3974 1573 3917 1573 
C 3866 1573 3866 1553 3859 1495 
C 3808 592 3168 38 2477 38 
C 1824 38 781 502 781 2179 
C 781 3862 1843 4313 2464 4313 
C 3187 4313 3712 3681 3834 2785 
C 3846 2707 3846 2695 3904 2695 
C 3974 2695 3974 2707 3974 2824 
L 3974 4351 
z
" transform="scale(0.015625)"/>
       <path id="CMR17-56" d="M 3776 3762 
C 3834 3903 3936 4179 4365 4185 
L 4365 4352 
C 4218 4339 4051 4339 3891 4339 
C 3738 4339 3475 4339 3328 4352 
L 3328 4185 
C 3648 4166 3661 3942 3661 3903 
C 3661 3833 3642 3788 3622 3737 
L 2362 448 
L 1043 3903 
C 1024 3948 1011 3980 1011 4012 
C 1011 4185 1267 4185 1402 4185 
L 1402 4352 
C 1197 4339 896 4339 685 4339 
C 518 4339 218 4339 64 4352 
L 64 4185 
C 435 4185 506 4160 582 3955 
L 2106 -26 
C 2138 -116 2144 -128 2214 -128 
C 2285 -128 2291 -116 2323 -26 
L 3776 3762 
z
" transform="scale(0.015625)"/>
      </defs>
      <use xlink:href="#CMR17-41" transform="scale(0.996264)"/>
      <use xlink:href="#CMR17-6d" transform="translate(69.07243 0) scale(0.996264)"/>
      <use xlink:href="#CMR17-70" transform="translate(145.99202 0) scale(0.996264)"/>
      <use xlink:href="#CMR17-6c" transform="translate(196.887389 0) scale(0.996264)"/>
      <use xlink:href="#CMR17-69" transform="translate(221.758448 0) scale(0.996264)"/>
      <use xlink:href="#CMR17-74" transform="translate(246.629506 0) scale(0.996264)"/>
      <use xlink:href="#CMR17-75" transform="translate(281.910274 0) scale(0.996264)"/>
      <use xlink:href="#CMR17-64" transform="translate(332.805644 0) scale(0.996264)"/>
      <use xlink:href="#CMR17-65" transform="translate(383.701014 0) scale(0.996264)"/>
      <use xlink:href="#CMR17-5b" transform="translate(454.262641 0) scale(0.996264)"/>
      <use xlink:href="#CMR17-41" transform="translate(479.133699 0) scale(0.996264)"/>
      <use xlink:href="#CMR17-44" transform="translate(548.206129 0) scale(0.996264)"/>
      <use xlink:href="#CMR17-43" transform="translate(618.599685 0) scale(0.996264)"/>
      <use xlink:href="#CMR17-56" transform="translate(715.185532 0) scale(0.996264)"/>
      <use xlink:href="#CMR17-61" transform="translate(776.450706 0) scale(0.996264)"/>
      <use xlink:href="#CMR17-6c" transform="translate(822.141183 0) scale(0.996264)"/>
      <use xlink:href="#CMR17-75" transform="translate(847.012242 0) scale(0.996264)"/>
      <use xlink:href="#CMR17-65" transform="translate(897.907611 0) scale(0.996264)"/>
      <use xlink:href="#CMR17-5d" transform="translate(938.393272 0) scale(0.996264)"/>
     </g>
    </g>
   </g>
   <g id="line2d_11">
    <path d="M 194.529421 510.207076 
L 195.322578 512.861512 
L 196.115735 555.4752 
L 196.908892 610.809269 
L 197.702049 527.76653 
L 198.495206 554.671813 
L 199.288363 599.649476 
L 200.08152 504.676563 
L 200.874677 577.776113 
L 201.667834 525.937589 
L 202.460991 531.032156 
L 203.254148 541.262697 
L 204.047305 553.914233 
L 204.840462 568.742682 
L 205.633619 608.546276 
L 206.426776 576.971639 
L 207.219933 553.438594 
L 208.01309 548.120097 
L 208.806247 526.84457 
L 209.599404 509.3712 
L 210.392561 578.068089 
L 211.978875 515.291073 
L 212.772032 588.546904 
L 213.565189 551.613752 
L 214.358346 522.399569 
L 215.151503 573.302514 
L 215.94466 556.334117 
L 216.737817 515.854031 
L 217.530973 575.792768 
L 218.32413 544.56651 
L 219.117287 535.61729 
L 219.910444 519.734563 
L 220.703601 604.219542 
L 221.496758 552.120792 
L 222.289915 530.199461 
L 223.083072 586.496683 
L 223.876229 564.216325 
L 224.669386 529.453229 
L 225.462543 541.536434 
L 226.2557 588.034701 
L 227.048857 513.81659 
L 227.842014 506.20014 
L 228.635171 581.986368 
L 229.428328 508.415797 
L 230.221485 529.229205 
L 231.014642 574.137156 
L 231.807799 492.191029 
L 232.600956 535.267094 
L 233.394113 535.981794 
L 234.18727 615.920992 
L 234.980427 552.359464 
L 235.773584 528.301366 
L 236.566741 558.713099 
L 237.359898 577.927924 
L 238.153055 535.867987 
L 238.946212 526.98421 
L 239.739369 608.841921 
L 240.532525 501.238631 
L 241.325682 515.843492 
L 242.118839 568.416959 
L 242.911996 515.745409 
L 243.705153 534.273629 
L 244.49831 547.634538 
L 245.291467 501.55233 
L 246.084624 571.886419 
L 246.877781 564.115204 
L 247.670938 619.090207 
L 248.464095 533.993814 
L 249.257252 567.743355 
L 250.050409 579.147371 
L 250.843566 515.907544 
L 251.636723 550.527542 
L 252.42988 537.733206 
L 253.223037 604.280557 
L 254.016194 527.558178 
L 254.809351 502.160045 
L 255.602508 586.115159 
L 256.395665 537.905438 
L 257.188822 514.291898 
L 257.981979 590.539798 
L 258.775136 513.247093 
L 259.568293 518.865402 
L 261.154607 591.66904 
L 261.947764 530.115476 
L 262.740921 545.989108 
L 263.534077 575.979381 
L 264.327234 561.314232 
L 265.120391 530.303433 
L 265.913548 542.793276 
L 266.706705 602.023585 
L 267.499862 528.09082 
L 268.293019 497.561843 
L 269.086176 589.262412 
L 269.879333 517.719375 
L 270.67249 519.115825 
L 271.465647 568.520369 
L 272.258804 501.110527 
L 273.051961 533.143054 
L 273.845118 539.884978 
L 274.638275 610.648753 
L 275.431432 537.204195 
L 276.224589 543.771058 
L 277.017746 587.824195 
L 277.810903 529.286213 
L 278.60406 564.840652 
L 279.397217 542.393104 
L 280.190374 585.482216 
L 280.983531 515.514226 
L 281.776688 501.622785 
L 282.569845 608.335208 
L 283.363002 523.810116 
L 284.156159 508.4541 
L 284.949316 598.02934 
L 285.742473 524.667867 
L 286.535629 496.590978 
L 287.328786 576.781216 
L 288.121943 580.428502 
L 288.9151 548.915995 
L 289.708257 556.634721 
L 290.501414 591.713158 
L 291.294571 510.047755 
L 292.087728 584.678739 
L 292.880885 547.826573 
L 293.674042 559.573527 
L 294.467199 548.653117 
L 295.260356 498.167722 
L 296.053513 569.807006 
L 296.84667 539.706364 
L 297.639827 480.872074 
L 298.432984 588.594921 
L 299.226141 515.361938 
L 300.019298 493.119959 
L 300.812455 603.67229 
L 301.605612 545.348658 
L 302.398769 573.609867 
L 303.191926 536.761753 
L 303.985083 599.280107 
L 304.77824 542.294333 
L 305.571397 576.735339 
L 306.364554 535.711321 
L 307.157711 538.372884 
L 307.950868 570.780721 
L 308.744025 498.791823 
L 309.537181 537.334524 
L 310.330338 551.616407 
L 311.123495 508.428561 
L 311.916652 563.286708 
L 312.709809 560.247551 
L 313.502966 482.295312 
L 314.296123 572.827373 
L 315.08928 536.771756 
L 315.882437 600.559675 
L 316.675594 557.473373 
L 317.468751 577.901057 
L 318.261908 551.443298 
L 319.055065 547.949213 
L 319.848222 538.016988 
L 320.641379 540.287229 
L 321.434536 601.538166 
L 322.227693 527.535274 
L 323.02085 505.469391 
L 323.814007 582.392644 
L 324.607164 513.635634 
L 325.400321 509.456004 
L 326.193478 570.552262 
L 326.986635 496.875359 
L 327.779792 547.841169 
L 328.572949 560.789347 
L 329.366106 599.880987 
L 330.159263 539.346626 
L 330.95242 561.929726 
L 331.745577 591.790449 
L 332.538733 519.018782 
L 333.33189 579.433751 
L 334.125047 536.539461 
L 334.918204 581.032801 
L 335.711361 525.332434 
L 336.504518 496.445827 
L 337.297675 603.257247 
L 338.090832 529.760136 
L 338.883989 511.245677 
L 339.677146 586.266088 
L 340.470303 530.226701 
L 341.26346 500.46454 
L 342.056617 585.414777 
L 342.849774 573.613147 
L 343.642931 554.250637 
L 344.436088 552.91764 
L 345.229245 588.247945 
L 346.022402 513.445158 
L 346.815559 587.481299 
L 347.608716 538.08716 
L 348.401873 560.637242 
L 349.19503 547.892703 
L 349.988187 501.769583 
L 350.781344 570.174402 
L 351.574501 543.144752 
L 352.367658 498.125062 
L 353.160815 578.599608 
L 353.953972 509.997632 
L 354.747129 504.820737 
L 355.540285 615.767475 
L 356.333442 547.805154 
L 357.126599 609.719177 
L 357.919756 502.012376 
L 358.712913 565.036818 
L 360.299227 493.675516 
L 361.092384 560.655633 
L 361.885541 564.213203 
L 362.678698 535.119939 
L 363.471855 557.880441 
L 364.265012 543.305963 
L 365.058169 546.154659 
L 365.851326 553.202656 
L 366.644483 529.997187 
L 367.43764 539.291664 
L 368.230797 575.378252 
L 369.023954 552.011572 
L 370.610268 574.010915 
L 371.403425 590.225606 
L 372.196582 573.825331 
L 372.989739 570.643506 
L 373.782896 570.693813 
L 374.576053 568.22482 
L 375.36921 588.666353 
L 376.162367 577.238322 
L 376.955524 533.584405 
L 377.748681 472.523564 
L 378.541837 511.900692 
L 379.334994 506.23711 
L 380.128151 585.565753 
L 380.921308 513.035655 
L 381.714465 518.179001 
L 382.507622 583.455708 
L 383.300779 517.672444 
L 384.093936 555.541367 
L 384.887093 543.854986 
L 385.68025 505.3386 
L 386.473407 587.516765 
L 387.266564 526.754045 
L 388.059721 536.575612 
L 388.852878 574.49301 
L 389.646035 516.151931 
L 390.439192 551.392315 
L 391.232349 532.343949 
L 392.025506 519.063068 
L 392.818663 569.874559 
L 393.61182 500.297482 
L 395.198134 568.281613 
L 395.991291 516.722068 
L 396.784448 568.872413 
L 397.577605 512.18776 
L 398.370762 518.093819 
L 399.163919 574.894982 
L 399.957076 513.611177 
L 400.750233 555.650251 
L 401.543389 549.268207 
L 402.336546 512.118502 
L 403.129703 573.349298 
L 403.92286 525.054897 
L 404.716017 533.971897 
L 405.509174 571.445818 
L 406.302331 506.572706 
L 407.095488 553.757998 
L 407.888645 522.241444 
L 408.681802 511.580643 
L 409.474959 588.605641 
L 410.268116 508.008655 
L 411.061273 534.817723 
L 411.85443 551.715167 
L 412.647587 516.926379 
L 413.440744 558.848335 
L 414.233901 533.021595 
L 415.820215 558.456635 
L 416.613372 547.148901 
L 417.406529 547.572806 
L 418.199686 531.525981 
L 418.992843 566.253331 
L 419.786 535.134802 
L 420.579157 612.332398 
L 421.372314 526.612799 
L 422.165471 534.26098 
L 422.958628 548.15111 
L 423.751785 535.278893 
L 424.544941 561.24628 
L 425.338098 533.964371 
L 426.131255 548.158017 
L 426.924412 529.461102 
L 427.717569 565.612838 
L 428.510726 546.569584 
L 429.303883 491.450759 
L 430.09704 547.462846 
L 430.890197 553.029327 
L 431.683354 545.018573 
L 432.476511 600.992245 
L 433.269668 583.463922 
L 434.062825 579.807083 
L 434.855982 550.656968 
L 435.649139 542.848043 
L 436.442296 553.741497 
L 437.235453 586.099852 
L 438.02861 582.388035 
L 438.821767 519.863548 
L 439.614924 486.68066 
L 440.408081 554.238235 
L 441.201238 546.738867 
L 441.994395 575.896141 
L 442.787552 562.789928 
L 443.580709 553.715423 
L 444.373866 584.596129 
L 445.167023 541.49548 
L 445.96018 556.80848 
L 446.753336 539.413974 
L 447.546493 537.325445 
L 448.33965 601.183167 
L 449.132807 593.399128 
L 449.925964 590.318007 
L 450.719121 493.750422 
L 451.512278 605.206095 
L 452.305435 537.173755 
L 453.098592 568.318352 
L 453.891749 557.454037 
L 454.684906 561.482266 
L 455.478063 515.790346 
L 456.27122 571.047127 
L 457.064377 616.732118 
L 457.857534 574.038218 
L 458.650691 503.322048 
L 459.443848 568.728706 
L 460.237005 556.36409 
L 461.030162 608.170156 
L 461.823319 552.379781 
L 462.616476 599.24796 
L 463.409633 534.931383 
L 464.20279 569.057814 
L 464.995947 573.589981 
L 465.789104 525.781343 
L 466.582261 532.153956 
L 467.375418 587.477187 
L 468.168575 543.717445 
L 468.961732 512.966932 
L 469.754888 491.179226 
L 470.548045 552.574834 
L 471.341202 565.996635 
L 472.134359 540.542145 
L 472.927516 594.556514 
L 473.720673 564.996017 
L 474.51383 562.196357 
L 475.306987 539.464002 
L 476.100144 550.479566 
L 476.893301 544.616286 
L 477.686458 572.754709 
L 478.479615 589.534152 
L 479.272772 524.789935 
L 480.065929 508.929986 
L 480.859086 546.987181 
L 481.652243 557.63399 
L 482.4454 579.695312 
L 483.238557 548.48152 
L 484.031714 547.471695 
L 484.824871 581.232809 
L 485.618028 550.962684 
L 486.411185 531.179837 
L 487.204342 562.388265 
L 487.997499 526.323705 
L 488.790656 589.149266 
L 489.583813 583.424459 
L 490.37697 533.969241 
L 491.170127 492.906096 
L 491.963284 573.626184 
L 492.75644 534.591117 
L 493.549597 578.933838 
L 494.342754 574.192574 
L 495.135911 581.926331 
L 495.929068 520.198052 
L 496.722225 598.996881 
L 497.515382 578.272725 
L 498.308539 568.311959 
L 499.101696 563.490777 
L 499.894853 564.023099 
L 500.68801 495.783685 
L 501.481167 573.756178 
L 502.274324 533.751232 
L 503.067481 586.239245 
L 503.860638 547.318347 
L 504.653795 581.265601 
L 505.446952 596.687314 
L 506.240109 532.632602 
L 507.033266 550.783109 
L 507.826423 553.840078 
L 508.61958 516.538625 
L 509.412737 546.536981 
L 510.205894 598.848313 
L 510.999051 591.358477 
L 511.792208 538.331495 
L 512.585365 558.65545 
L 513.378522 530.781029 
L 514.171679 519.599384 
L 514.964836 545.710159 
L 515.757992 518.033242 
L 516.551149 549.334038 
L 517.344306 493.090915 
L 518.137463 590.897245 
L 518.93062 558.401447 
L 519.723777 533.546617 
L 520.516934 520.020056 
L 521.310091 561.109958 
L 522.103248 568.90954 
L 522.896405 586.997937 
L 523.689562 588.759315 
L 524.482719 555.760274 
L 525.275876 548.91345 
L 526.069033 571.504674 
L 526.86219 612.518463 
L 527.655347 564.855411 
L 528.448504 492.967933 
L 529.241661 510.013262 
L 530.034818 531.46005 
L 530.827975 573.005526 
L 531.621132 509.708391 
L 532.414289 522.315689 
L 533.207446 580.43723 
L 534.000603 523.250109 
L 534.79376 550.843801 
L 535.586917 536.086878 
L 536.380074 517.207601 
L 537.173231 586.156899 
L 537.966388 524.160008 
L 538.759544 533.379643 
L 539.552701 574.754781 
L 540.345858 507.243665 
L 541.139015 552.82806 
L 542.725329 507.303056 
L 543.518486 575.357705 
L 544.311643 521.37792 
L 545.1048 534.161397 
L 545.897957 565.677473 
L 546.691114 508.522571 
L 547.484271 587.189714 
L 548.277428 524.987927 
L 549.070585 510.986688 
L 549.863742 575.690623 
L 550.656899 513.526131 
L 551.450056 551.135352 
L 552.243213 539.145453 
L 553.03637 507.16433 
L 553.829527 578.438995 
L 554.622684 524.761174 
L 555.415841 534.878983 
L 556.208998 568.507269 
L 557.002155 508.647242 
L 557.795312 555.844674 
L 559.381626 511.901322 
L 560.174783 582.016908 
L 560.96794 514.63545 
L 561.761096 538.655187 
L 562.554253 552.19828 
L 563.34741 517.150834 
L 564.140567 545.925812 
L 564.933724 534.350582 
L 565.726881 549.444575 
L 566.520038 553.357957 
L 567.313195 545.021644 
L 568.106352 548.942883 
L 568.899509 538.649099 
L 569.692666 565.718552 
L 570.485823 526.917775 
L 571.27898 621.460155 
L 572.072137 522.419523 
L 572.865294 534.854274 
L 573.658451 529.040744 
L 574.451608 541.915974 
L 575.244765 547.181273 
L 576.037922 541.197532 
L 576.831079 537.318863 
L 577.624236 545.378122 
L 578.417393 561.526961 
L 579.21055 539.18742 
L 580.003707 505.867243 
L 580.796864 560.440389 
L 581.590021 568.489498 
L 582.383178 544.779607 
L 583.176335 594.606883 
L 583.969492 571.822241 
L 584.762648 577.65456 
L 585.555805 544.74237 
L 586.348962 550.66609 
L 587.142119 548.738724 
L 587.935276 592.268755 
L 588.728433 565.892118 
L 589.52159 523.485763 
L 590.314747 496.324252 
L 591.107904 548.097985 
L 591.901061 555.541262 
L 592.694218 576.808497 
L 593.487375 555.575445 
L 594.280532 554.894803 
L 595.073689 593.644387 
L 595.866846 542.190142 
L 596.660003 545.881715 
L 597.45316 550.239156 
L 598.246317 526.892688 
L 599.039474 594.389745 
L 599.832631 591.620127 
L 600.625788 593.307676 
L 601.418945 503.695852 
L 602.212102 616.635513 
L 603.005259 556.417131 
L 604.591573 587.178394 
L 605.38473 586.973429 
L 606.177887 556.103196 
L 606.971044 601.100764 
L 607.7642 627.317169 
L 608.557357 599.29084 
L 609.350514 584.942087 
L 610.143671 606.473769 
L 610.936828 605.19301 
L 611.729985 623.755316 
L 612.523142 614.92662 
L 613.316299 618.447318 
L 614.109456 612.825342 
L 614.902613 624.612922 
L 615.69577 625.113435 
L 616.488927 624.680746 
L 617.282084 628.07882 
L 618.075241 624.716448 
L 618.868398 626.826958 
L 619.661555 625.770975 
L 621.247869 628.283153 
L 622.041026 628.514836 
L 622.834183 627.814544 
L 623.62734 627.609279 
L 624.420497 625.127049 
L 625.213654 626.826057 
L 626.006811 624.647971 
L 626.799968 628.399402 
L 627.593125 626.15819 
L 628.386282 625.146783 
L 629.179439 626.282293 
L 629.972596 627.673991 
L 630.765752 626.912875 
L 631.558909 625.759247 
L 632.352066 627.080943 
L 633.145223 627.335329 
L 633.93838 627.706805 
L 634.731537 627.817804 
L 635.524694 626.110953 
L 636.317851 626.949955 
L 636.317851 626.949955 
" clip-path="url(#pcc4025d78c)" style="fill: none; stroke: #1f77b4; stroke-width: 1.5; stroke-linecap: square"/>
   </g>
   <g id="patch_3">
    <path d="M 172.44 636.3144 
L 172.44 464.724 
" style="fill: none; stroke: #000000; stroke-width: 0.8; stroke-linejoin: miter; stroke-linecap: square"/>
   </g>
   <g id="patch_4">
    <path d="M 658.407273 636.3144 
L 658.407273 464.724 
" style="fill: none; stroke: #000000; stroke-width: 0.8; stroke-linejoin: miter; stroke-linecap: square"/>
   </g>
   <g id="patch_5">
    <path d="M 172.44 636.3144 
L 658.407273 636.3144 
" style="fill: none; stroke: #000000; stroke-width: 0.8; stroke-linejoin: miter; stroke-linecap: square"/>
   </g>
   <g id="patch_6">
    <path d="M 172.44 464.724 
L 658.407273 464.724 
" style="fill: none; stroke: #000000; stroke-width: 0.8; stroke-linejoin: miter; stroke-linecap: square"/>
   </g>
  </g>
  <g id="axes_2">
   <g id="patch_7">
    <path d="M 755.600727 636.3144 
L 1241.568 636.3144 
L 1241.568 464.724 
L 755.600727 464.724 
z
" style="fill: #ffffff"/>
   </g>
   <g id="matplotlib.axis_3">
    <g id="xtick_7">
     <g id="line2d_12">
      <g>
       <use xlink:href="#mfa5f30872b" x="777.690149" y="636.3144" style="stroke: #000000; stroke-width: 0.8"/>
      </g>
     </g>
     <g id="text_13">
      <!-- $\mathdefault{0}$ -->
      <g transform="translate(774.03203 653.692125) scale(0.15 -0.15)">
       <use xlink:href="#CMR17-30" transform="scale(0.996264)"/>
      </g>
     </g>
    </g>
    <g id="xtick_8">
     <g id="line2d_13">
      <g>
       <use xlink:href="#mfa5f30872b" x="857.005845" y="636.3144" style="stroke: #000000; stroke-width: 0.8"/>
      </g>
     </g>
     <g id="text_14">
      <!-- $\mathdefault{100}$ -->
      <g transform="translate(846.031489 653.692125) scale(0.15 -0.15)">
       <use xlink:href="#CMR17-31" transform="scale(0.996264)"/>
       <use xlink:href="#CMR17-30" transform="translate(45.690477 0) scale(0.996264)"/>
       <use xlink:href="#CMR17-30" transform="translate(91.380954 0) scale(0.996264)"/>
      </g>
     </g>
    </g>
    <g id="xtick_9">
     <g id="line2d_14">
      <g>
       <use xlink:href="#mfa5f30872b" x="936.321542" y="636.3144" style="stroke: #000000; stroke-width: 0.8"/>
      </g>
     </g>
     <g id="text_15">
      <!-- $\mathdefault{200}$ -->
      <g transform="translate(925.347185 653.692125) scale(0.15 -0.15)">
       <use xlink:href="#CMR17-32" transform="scale(0.996264)"/>
       <use xlink:href="#CMR17-30" transform="translate(45.690477 0) scale(0.996264)"/>
       <use xlink:href="#CMR17-30" transform="translate(91.380954 0) scale(0.996264)"/>
      </g>
     </g>
    </g>
    <g id="xtick_10">
     <g id="line2d_15">
      <g>
       <use xlink:href="#mfa5f30872b" x="1015.637238" y="636.3144" style="stroke: #000000; stroke-width: 0.8"/>
      </g>
     </g>
     <g id="text_16">
      <!-- $\mathdefault{300}$ -->
      <g transform="translate(1004.662882 653.692125) scale(0.15 -0.15)">
       <use xlink:href="#CMR17-33" transform="scale(0.996264)"/>
       <use xlink:href="#CMR17-30" transform="translate(45.690477 0) scale(0.996264)"/>
       <use xlink:href="#CMR17-30" transform="translate(91.380954 0) scale(0.996264)"/>
      </g>
     </g>
    </g>
    <g id="xtick_11">
     <g id="line2d_16">
      <g>
       <use xlink:href="#mfa5f30872b" x="1094.952935" y="636.3144" style="stroke: #000000; stroke-width: 0.8"/>
      </g>
     </g>
     <g id="text_17">
      <!-- $\mathdefault{400}$ -->
      <g transform="translate(1083.978578 653.692125) scale(0.15 -0.15)">
       <use xlink:href="#CMR17-34" transform="scale(0.996264)"/>
       <use xlink:href="#CMR17-30" transform="translate(45.690477 0) scale(0.996264)"/>
       <use xlink:href="#CMR17-30" transform="translate(91.380954 0) scale(0.996264)"/>
      </g>
     </g>
    </g>
    <g id="xtick_12">
     <g id="line2d_17">
      <g>
       <use xlink:href="#mfa5f30872b" x="1174.268631" y="636.3144" style="stroke: #000000; stroke-width: 0.8"/>
      </g>
     </g>
     <g id="text_18">
      <!-- $\mathdefault{500}$ -->
      <g transform="translate(1163.294275 653.692125) scale(0.15 -0.15)">
       <use xlink:href="#CMR17-35" transform="scale(0.996264)"/>
       <use xlink:href="#CMR17-30" transform="translate(45.690477 0) scale(0.996264)"/>
       <use xlink:href="#CMR17-30" transform="translate(91.380954 0) scale(0.996264)"/>
      </g>
     </g>
    </g>
    <g id="text_19">
     <!-- Sample [\#] -->
     <g transform="translate(962.81609 671.80584) scale(0.15 -0.15)">
      <use xlink:href="#CMR17-53" transform="scale(0.996264)"/>
      <use xlink:href="#CMR17-61" transform="translate(50.89537 0) scale(0.996264)"/>
      <use xlink:href="#CMR17-6d" transform="translate(96.585847 0) scale(0.996264)"/>
      <use xlink:href="#CMR17-70" transform="translate(173.505437 0) scale(0.996264)"/>
      <use xlink:href="#CMR17-6c" transform="translate(224.400807 0) scale(0.996264)"/>
      <use xlink:href="#CMR17-65" transform="translate(249.271865 0) scale(0.996264)"/>
      <use xlink:href="#CMR17-5b" transform="translate(319.833492 0) scale(0.996264)"/>
      <use xlink:href="#CMR17-23" transform="translate(344.70455 0) scale(0.996264)"/>
      <use xlink:href="#CMR17-5d" transform="translate(421.62414 0) scale(0.996264)"/>
     </g>
    </g>
   </g>
   <g id="matplotlib.axis_4">
    <g id="ytick_5">
     <g id="line2d_18">
      <g>
       <use xlink:href="#m9c5d71b965" x="755.600727" y="600.35905" style="stroke: #000000; stroke-width: 0.8"/>
      </g>
     </g>
     <g id="text_20">
      <!-- $\mathdefault{−2}$ -->
      <g transform="translate(729.661374 605.547913) scale(0.15 -0.15)">
       <defs>
        <path id="CMSY10-0" d="M 4218 1472 
C 4326 1472 4442 1472 4442 1600 
C 4442 1728 4326 1728 4218 1728 
L 755 1728 
C 646 1728 531 1728 531 1600 
C 531 1472 646 1472 755 1472 
L 4218 1472 
z
" transform="scale(0.015625)"/>
       </defs>
       <use xlink:href="#CMSY10-0" transform="scale(0.996264)"/>
       <use xlink:href="#CMR17-32" transform="translate(77.487468 0) scale(0.996264)"/>
      </g>
     </g>
    </g>
    <g id="ytick_6">
     <g id="line2d_19">
      <g>
       <use xlink:href="#m9c5d71b965" x="755.600727" y="550.572236" style="stroke: #000000; stroke-width: 0.8"/>
      </g>
     </g>
     <g id="text_21">
      <!-- $\mathdefault{0}$ -->
      <g transform="translate(741.284489 555.761098) scale(0.15 -0.15)">
       <use xlink:href="#CMR17-30" transform="scale(0.996264)"/>
      </g>
     </g>
    </g>
    <g id="ytick_7">
     <g id="line2d_20">
      <g>
       <use xlink:href="#m9c5d71b965" x="755.600727" y="500.785421" style="stroke: #000000; stroke-width: 0.8"/>
      </g>
     </g>
     <g id="text_22">
      <!-- $\mathdefault{2}$ -->
      <g transform="translate(741.284489 505.974283) scale(0.15 -0.15)">
       <use xlink:href="#CMR17-32" transform="scale(0.996264)"/>
      </g>
     </g>
    </g>
    <g id="text_23">
     <!-- Phase rotation [Radian] -->
     <g transform="translate(721.925384 626.768072) rotate(-90) scale(0.15 -0.15)">
      <defs>
       <path id="CMR17-50" d="M 1267 2048 
L 2291 2048 
C 3117 2048 3718 2583 3718 3187 
C 3718 3791 3130 4352 2291 4352 
L 333 4352 
L 333 4185 
C 774 4185 845 4185 845 3899 
L 845 453 
C 845 166 774 166 333 166 
L 333 0 
C 518 12 858 12 1056 12 
C 1254 12 1594 12 1779 0 
L 1779 166 
C 1338 166 1267 166 1267 453 
L 1267 2048 
z
M 1254 2182 
L 1254 3937 
C 1254 4153 1267 4185 1523 4185 
L 2170 4185 
C 2995 4185 3232 3715 3232 3187 
C 3232 2608 2950 2182 2170 2182 
L 1254 2182 
z
" transform="scale(0.015625)"/>
       <path id="CMR17-68" d="M 2656 1954 
C 2656 2282 2592 2816 1837 2816 
C 1312 2816 1056 2392 979 2179 
L 973 2179 
L 973 4416 
L 211 4345 
L 211 4179 
C 589 4179 646 4141 646 3843 
L 646 443 
C 646 198 621 166 211 166 
L 211 0 
C 365 12 646 12 813 12 
C 979 12 1267 12 1421 0 
L 1421 166 
C 1011 166 986 192 986 443 
L 986 1678 
C 986 2269 1344 2713 1792 2713 
C 2266 2713 2317 2289 2317 1980 
L 2317 443 
C 2317 198 2291 166 1882 166 
L 1882 0 
C 2035 12 2317 12 2483 12 
C 2650 12 2938 12 3091 0 
L 3091 166 
C 2682 166 2656 192 2656 443 
L 2656 1954 
z
" transform="scale(0.015625)"/>
       <path id="CMR17-73" d="M 1978 2688 
C 1978 2803 1971 2809 1933 2809 
C 1907 2809 1901 2803 1824 2707 
C 1805 2681 1747 2617 1728 2592 
C 1523 2809 1235 2816 1126 2816 
C 416 2816 160 2444 160 2073 
C 160 1497 813 1363 998 1324 
C 1402 1241 1542 1216 1677 1100 
C 1760 1024 1901 883 1901 652 
C 1901 384 1747 38 1158 38 
C 602 38 403 460 288 1024 
C 269 1113 269 1120 218 1120 
C 166 1120 160 1113 160 985 
L 160 64 
C 160 -52 166 -58 205 -58 
C 237 -58 243 -52 275 0 
C 314 57 410 211 448 275 
C 576 102 800 -64 1158 -64 
C 1792 -64 2131 281 2131 780 
C 2131 1107 1958 1280 1875 1356 
C 1683 1555 1459 1600 1190 1651 
C 838 1728 390 1817 390 2208 
C 390 2374 480 2726 1126 2726 
C 1811 2726 1850 2086 1862 1881 
C 1869 1849 1901 1843 1920 1843 
C 1978 1843 1978 1862 1978 1971 
L 1978 2688 
z
" transform="scale(0.015625)"/>
       <path id="CMR17-72" d="M 960 1517 
C 960 2134 1222 2713 1702 2713 
C 1747 2713 1792 2707 1837 2687 
C 1837 2687 1696 2642 1696 2475 
C 1696 2321 1818 2257 1914 2257 
C 1990 2257 2131 2302 2131 2482 
C 2131 2687 1926 2816 1709 2816 
C 1222 2816 1011 2340 947 2115 
L 941 2115 
L 941 2816 
L 198 2745 
L 198 2578 
C 576 2578 634 2540 634 2231 
L 634 443 
C 634 198 608 166 198 166 
L 198 0 
C 352 12 646 12 813 12 
C 998 12 1325 12 1498 0 
L 1498 166 
C 1037 166 960 166 960 455 
L 960 1517 
z
" transform="scale(0.015625)"/>
       <path id="CMR17-6f" d="M 2758 1356 
C 2758 2176 2163 2816 1466 2816 
C 768 2816 173 2176 173 1356 
C 173 550 768 -64 1466 -64 
C 2163 -64 2758 550 2758 1356 
z
M 1466 51 
C 1165 51 909 230 762 480 
C 602 768 582 1126 582 1408 
C 582 1676 595 2009 762 2297 
C 890 2508 1139 2713 1466 2713 
C 1754 2713 1997 2553 2150 2329 
C 2349 2028 2349 1606 2349 1408 
C 2349 1158 2336 774 2163 467 
C 1984 172 1709 51 1466 51 
z
" transform="scale(0.015625)"/>
       <path id="CMR17-6e" d="M 2656 1954 
C 2656 2282 2592 2816 1837 2816 
C 1331 2816 1069 2424 973 2166 
L 966 2166 
L 966 2816 
L 211 2745 
L 211 2578 
C 589 2578 646 2540 646 2231 
L 646 443 
C 646 198 621 166 211 166 
L 211 0 
C 365 12 646 12 813 12 
C 979 12 1267 12 1421 0 
L 1421 166 
C 1011 166 986 192 986 443 
L 986 1678 
C 986 2269 1344 2713 1792 2713 
C 2266 2713 2317 2289 2317 1980 
L 2317 443 
C 2317 198 2291 166 1882 166 
L 1882 0 
C 2035 12 2317 12 2483 12 
C 2650 12 2938 12 3091 0 
L 3091 166 
C 2682 166 2656 192 2656 443 
L 2656 1954 
z
" transform="scale(0.015625)"/>
       <path id="CMR17-52" d="M 2509 2156 
C 3117 2278 3629 2689 3629 3203 
C 3629 3806 2950 4352 2054 4352 
L 333 4352 
L 333 4185 
C 774 4185 845 4185 845 3896 
L 845 428 
C 845 140 774 140 333 140 
L 333 -26 
C 518 -13 851 -13 1050 -13 
C 1248 -13 1581 -13 1766 -26 
L 1766 140 
C 1325 140 1254 140 1254 428 
L 1254 2112 
L 2003 2112 
C 2368 2112 2573 1964 2662 1881 
C 2918 1632 2918 1459 2918 1024 
C 2918 595 2918 377 3110 160 
C 3354 -103 3680 -128 3821 -128 
C 4294 -128 4365 403 4365 512 
C 4365 550 4365 595 4307 595 
C 4256 595 4250 556 4250 531 
C 4218 115 4032 -26 3834 -26 
C 3482 -26 3443 377 3405 768 
C 3386 902 3373 998 3360 1139 
C 3322 1459 3270 1926 2509 2156 
z
M 1984 2214 
L 1254 2214 
L 1254 3935 
C 1254 4153 1267 4185 1523 4185 
L 1990 4185 
C 2522 4185 3142 3999 3142 3203 
C 3142 2374 2464 2214 1984 2214 
z
" transform="scale(0.015625)"/>
      </defs>
      <use xlink:href="#CMR17-50" transform="scale(0.996264)"/>
      <use xlink:href="#CMR17-68" transform="translate(62.586301 0) scale(0.996264)"/>
      <use xlink:href="#CMR17-61" transform="translate(113.48167 0) scale(0.996264)"/>
      <use xlink:href="#CMR17-73" transform="translate(159.172147 0) scale(0.996264)"/>
      <use xlink:href="#CMR17-65" transform="translate(194.973485 0) scale(0.996264)"/>
      <use xlink:href="#CMR17-72" transform="translate(265.535112 0) scale(0.996264)"/>
      <use xlink:href="#CMR17-6f" transform="translate(300.81588 0) scale(0.996264)"/>
      <use xlink:href="#CMR17-74" transform="translate(346.506357 0) scale(0.996264)"/>
      <use xlink:href="#CMR17-61" transform="translate(381.787125 0) scale(0.996264)"/>
      <use xlink:href="#CMR17-74" transform="translate(427.477602 0) scale(0.996264)"/>
      <use xlink:href="#CMR17-69" transform="translate(462.758369 0) scale(0.996264)"/>
      <use xlink:href="#CMR17-6f" transform="translate(487.629428 0) scale(0.996264)"/>
      <use xlink:href="#CMR17-6e" transform="translate(533.319905 0) scale(0.996264)"/>
      <use xlink:href="#CMR17-5b" transform="translate(614.291241 0) scale(0.996264)"/>
      <use xlink:href="#CMR17-52" transform="translate(639.1623 0) scale(0.996264)"/>
      <use xlink:href="#CMR17-61" transform="translate(706.953402 0) scale(0.996264)"/>
      <use xlink:href="#CMR17-64" transform="translate(752.643879 0) scale(0.996264)"/>
      <use xlink:href="#CMR17-69" transform="translate(803.539249 0) scale(0.996264)"/>
      <use xlink:href="#CMR17-61" transform="translate(828.410307 0) scale(0.996264)"/>
      <use xlink:href="#CMR17-6e" transform="translate(874.100784 0) scale(0.996264)"/>
      <use xlink:href="#CMR17-5d" transform="translate(924.996154 0) scale(0.996264)"/>
     </g>
    </g>
   </g>
   <g id="line2d_21">
    <path d="M 777.690149 550.572236 
L 778.483306 554.67863 
L 779.276463 478.763267 
L 780.06962 497.197671 
L 780.862777 547.379439 
L 781.655934 481.397343 
L 782.449091 559.19717 
L 783.242248 528.997293 
L 784.035404 580.963743 
L 784.828561 613.444413 
L 785.621718 473.724082 
L 786.414875 578.853358 
L 787.208032 528.579062 
L 788.001189 598.274019 
L 788.794346 482.729703 
L 789.587503 548.225303 
L 790.38066 589.472363 
L 791.173817 532.19606 
L 791.966974 549.617583 
L 792.760131 592.573641 
L 793.553288 553.522098 
L 794.346445 504.433103 
L 795.139602 553.44594 
L 795.932759 544.57679 
L 796.725916 502.974873 
L 797.519073 548.642869 
L 798.31223 544.696891 
L 799.105387 510.875767 
L 799.898544 542.85788 
L 800.691701 544.8993 
L 801.484858 499.251638 
L 802.278015 535.21306 
L 803.071172 543.136733 
L 803.864329 556.914906 
L 804.657486 487.438512 
L 805.450643 525.718712 
L 806.2438 613.563755 
L 807.036956 586.733788 
L 807.830113 602.673863 
L 808.62327 578.510229 
L 809.416427 603.502443 
L 810.209584 601.624878 
L 811.002741 579.22843 
L 811.795898 614.516081 
L 812.589055 586.287075 
L 813.382212 573.716132 
L 814.175369 617.570543 
L 814.968526 584.650262 
L 815.761683 579.775926 
L 816.55484 478.243291 
L 817.347997 542.745969 
L 818.141154 503.725381 
L 818.934311 526.271363 
L 819.727468 616.543032 
L 820.520625 585.043937 
L 821.313782 612.566761 
L 822.106939 579.783214 
L 822.900096 616.114284 
L 823.693253 592.517661 
L 824.48641 578.326361 
L 825.279567 625.644575 
L 826.072724 598.271456 
L 826.865881 580.253282 
L 827.659038 479.234397 
L 828.452195 597.524945 
L 829.245352 594.199797 
L 830.038508 476.05245 
L 830.831665 519.308691 
L 832.417979 543.804806 
L 833.211136 483.073259 
L 834.004293 569.49237 
L 834.79745 497.547139 
L 835.590607 584.693033 
L 836.383764 594.602122 
L 837.176921 628.364632 
L 837.970078 592.26281 
L 838.763235 619.422006 
L 839.556392 605.834206 
L 840.349549 585.685326 
L 841.142706 624.812457 
L 841.935863 601.99475 
L 842.72902 588.166272 
L 843.522177 628.514836 
L 844.315334 571.09906 
L 845.108491 490.317891 
L 845.901648 528.743119 
L 846.694805 609.142451 
L 847.487962 581.498978 
L 848.281119 609.673567 
L 849.074276 577.265625 
L 849.867433 602.616079 
L 850.66059 609.586108 
L 851.453747 589.04333 
L 852.246904 476.279359 
L 853.04006 595.404185 
L 853.833217 584.222264 
L 854.626374 472.537903 
L 855.419531 591.15089 
L 856.212688 586.249963 
L 857.005845 476.863653 
L 857.799002 561.174136 
L 858.592159 484.778636 
L 859.385316 531.083523 
L 860.178473 625.952604 
L 861.764787 494.88769 
L 862.557944 556.776026 
L 863.351101 584.25664 
L 864.144258 624.146734 
L 864.937415 581.189311 
L 865.730572 590.710082 
L 866.523729 609.550022 
L 867.316886 577.652116 
L 868.110043 607.163562 
L 868.9032 599.019058 
L 869.696357 577.650216 
L 870.489514 625.335358 
L 871.282671 583.930355 
L 872.075828 482.683326 
L 872.868985 527.137521 
L 873.662142 594.227715 
L 874.455299 594.145479 
L 875.248456 506.534349 
L 876.041612 556.788181 
L 876.834769 587.767436 
L 877.627926 475.232511 
L 878.421083 594.360281 
L 879.21424 592.014559 
L 880.007397 476.077662 
L 880.800554 585.239485 
L 881.593711 594.800044 
L 882.386868 476.067406 
L 883.180025 587.043455 
L 883.973182 612.978488 
L 884.766339 607.623742 
L 885.559496 506.69977 
L 887.14581 572.811203 
L 887.938967 620.939907 
L 888.732124 555.157134 
L 889.525281 515.982 
L 890.318438 588.815234 
L 891.111595 480.337984 
L 891.904752 588.394083 
L 892.697909 580.031359 
L 893.491066 484.838652 
L 894.284223 582.883602 
L 895.07738 574.895878 
L 895.870537 626.153446 
L 896.663694 585.635566 
L 897.456851 574.728177 
L 898.250008 474.962727 
L 899.043164 493.56517 
L 899.836321 540.74797 
L 900.629478 541.435106 
L 901.422635 473.236814 
L 902.215792 571.458961 
L 903.008949 501.48984 
L 903.802106 594.553526 
L 904.595263 618.433132 
L 905.38842 603.417168 
L 906.181577 585.154115 
L 906.974734 474.015018 
L 907.767891 599.087335 
L 908.561048 581.032626 
L 909.354205 475.399927 
L 910.147362 598.414823 
L 910.940519 581.58036 
L 911.733676 483.009516 
L 912.526833 563.30705 
L 913.31999 499.305742 
L 914.113147 547.875349 
L 914.906304 624.057091 
L 915.699461 580.729131 
L 916.492618 508.342023 
L 917.285775 574.674429 
L 918.078932 589.416906 
L 918.872089 627.33115 
L 919.665246 588.608979 
L 921.25156 616.671039 
L 922.044716 587.627274 
L 922.837873 618.623243 
L 923.63103 608.872667 
L 924.424187 587.505724 
L 925.217344 474.17911 
L 926.010501 584.165763 
L 926.803658 488.278512 
L 927.596815 531.138885 
L 928.389972 595.487561 
L 929.183129 592.236482 
L 929.976286 502.379053 
L 930.769443 549.856421 
L 931.5626 581.892591 
L 932.355757 475.229757 
L 933.148914 596.794221 
L 933.942071 577.807377 
L 934.735228 479.250208 
L 935.528385 586.460586 
L 936.321542 589.160512 
L 937.114699 477.458677 
L 937.907856 588.401015 
L 938.701013 625.00328 
L 939.49417 523.308037 
L 940.287327 524.556961 
L 941.080484 478.132519 
L 941.873641 551.791722 
L 942.666798 528.205925 
L 943.459955 555.869909 
L 944.253112 612.64584 
L 945.046268 537.2084 
L 945.839425 474.563132 
L 946.632582 543.047921 
L 947.425739 540.460049 
L 948.218896 532.198838 
L 949.012053 554.785267 
L 949.80521 555.576481 
L 950.598367 580.266102 
L 951.391524 526.016129 
L 952.184681 606.148621 
L 952.977838 541.017089 
L 953.770995 591.601574 
L 954.564152 578.346564 
L 955.357309 595.265352 
L 956.150466 592.059665 
L 956.943623 585.858154 
L 957.73678 595.911466 
L 958.529937 586.632085 
L 959.323094 592.857526 
L 960.116251 577.270278 
L 960.909408 542.524497 
L 961.702565 472.523564 
L 962.495722 586.974893 
L 963.288879 569.285023 
L 964.082036 487.971599 
L 964.875193 529.370145 
L 965.66835 510.884503 
L 966.461507 526.728905 
L 967.254664 535.002271 
L 968.04782 500.785231 
L 968.840977 530.008282 
L 969.634134 523.895844 
L 970.427291 497.80669 
L 971.220448 533.411297 
L 972.013605 487.779398 
L 972.806762 528.891163 
L 973.599919 525.565065 
L 974.393076 487.257304 
L 975.186233 523.261506 
L 975.97939 505.716736 
L 976.772547 510.475982 
L 977.565704 530.703395 
L 978.358861 481.892967 
L 979.152018 530.136954 
L 979.945175 519.864758 
L 980.738332 488.479829 
L 981.531489 528.106501 
L 982.324646 501.089865 
L 983.117803 525.654328 
L 983.91096 530.955421 
L 984.704117 498.482241 
L 985.497274 534.381607 
L 987.083588 511.128458 
L 987.876745 541.293899 
L 988.669902 496.776935 
L 989.463059 528.75214 
L 990.256215 528.12141 
L 991.049372 494.493507 
L 991.842529 523.836589 
L 992.635686 502.974932 
L 993.428843 512.03182 
L 994.222 527.801297 
L 995.015157 488.056684 
L 995.808314 522.874161 
L 996.601471 595.717651 
L 997.394628 597.76567 
L 998.187785 590.93438 
L 998.980942 581.757841 
L 999.774099 579.144235 
L 1000.567256 581.38474 
L 1001.360413 589.795325 
L 1002.15357 568.358016 
L 1002.946727 621.553544 
L 1003.739884 617.856435 
L 1004.533041 535.07653 
L 1005.326198 522.747388 
L 1006.119355 530.831782 
L 1006.912512 522.794489 
L 1007.705669 550.381744 
L 1008.498826 566.572943 
L 1009.291983 564.430247 
L 1010.08514 518.293631 
L 1010.878297 569.364791 
L 1011.671454 493.3479 
L 1012.464611 522.706555 
L 1013.257767 610.511311 
L 1014.050924 532.529396 
L 1014.844081 607.897419 
L 1015.637238 521.610612 
L 1016.430395 519.983174 
L 1017.223552 542.674345 
L 1018.016709 481.480932 
L 1018.809866 527.479855 
L 1019.603023 604.906344 
L 1020.39618 602.892225 
L 1021.189337 555.125037 
L 1021.982494 574.219282 
L 1022.775651 482.252869 
L 1023.568808 502.519595 
L 1024.361965 597.180047 
L 1025.155122 534.033576 
L 1025.948279 578.902275 
L 1026.741436 580.120717 
L 1027.534593 564.67629 
L 1028.32775 573.293794 
L 1029.120907 551.318912 
L 1029.914064 536.660951 
L 1030.707221 616.106117 
L 1031.500378 597.379465 
L 1032.293535 609.822085 
L 1033.086692 600.042641 
L 1033.879849 611.597473 
L 1034.673006 473.221431 
L 1035.466163 522.974534 
L 1036.259319 498.083976 
L 1037.052476 583.628095 
L 1037.845633 503.814576 
L 1038.63879 514.367856 
L 1039.431947 610.117508 
L 1040.225104 603.78837 
L 1041.018261 542.432385 
L 1041.811418 583.692003 
L 1042.604575 490.121891 
L 1043.397732 520.263973 
L 1044.190889 531.496033 
L 1044.984046 593.562705 
L 1045.777203 558.394348 
L 1046.57036 565.420593 
L 1047.363517 592.951917 
L 1048.156674 585.66358 
L 1048.949831 550.794064 
L 1049.742988 539.012751 
L 1050.536145 578.995906 
L 1051.329302 592.503987 
L 1052.122459 623.775722 
L 1052.915616 533.905283 
L 1053.708773 609.851048 
L 1054.50193 533.751542 
L 1055.295087 596.895734 
L 1056.088244 514.754821 
L 1056.881401 520.314967 
L 1057.674558 555.067206 
L 1058.467715 484.844539 
L 1059.260871 529.401672 
L 1060.054028 611.395016 
L 1060.847185 615.131249 
L 1061.640342 568.932529 
L 1062.433499 578.281041 
L 1063.226656 490.839035 
L 1064.019813 516.833134 
L 1064.81297 600.666818 
L 1065.606127 541.222774 
L 1066.399284 562.901188 
L 1067.192441 580.781929 
L 1067.985598 568.109599 
L 1068.778755 574.453171 
L 1069.571912 542.131359 
L 1070.365069 525.38426 
L 1071.158226 599.488639 
L 1071.951383 594.846955 
L 1072.74454 608.110701 
L 1073.537697 600.072459 
L 1074.330854 618.120901 
L 1075.124011 519.76144 
L 1075.917168 607.137733 
L 1076.710325 486.934057 
L 1077.503482 567.005014 
L 1078.296639 522.366405 
L 1079.089796 492.056243 
L 1079.882953 553.010449 
L 1080.67611 601.504088 
L 1082.262423 574.961211 
L 1083.05558 555.877506 
L 1083.848737 477.965388 
L 1084.641894 507.103924 
L 1085.435051 615.521633 
L 1086.228208 540.289689 
L 1087.021365 585.845809 
L 1087.814522 592.817452 
L 1088.607679 573.692725 
L 1089.400836 567.049646 
L 1090.193993 540.009554 
L 1090.98715 535.663958 
L 1091.780307 612.946106 
L 1092.573464 617.993653 
L 1093.366621 577.758187 
L 1094.159778 479.985584 
L 1094.952935 577.377584 
L 1095.746092 620.921675 
L 1096.539249 529.452191 
L 1097.332406 524.658379 
L 1098.125563 525.346465 
L 1098.91872 540.299185 
L 1099.711877 540.051907 
L 1100.505034 572.581873 
L 1101.298191 498.446346 
L 1102.091348 553.709551 
L 1102.884505 590.597269 
L 1103.677662 513.807587 
L 1105.263975 598.029851 
L 1106.057132 602.998391 
L 1106.850289 579.272052 
L 1107.643446 602.195402 
L 1108.436603 610.142863 
L 1109.22976 607.366778 
L 1110.022917 603.272828 
L 1110.816074 558.624913 
L 1111.609231 614.958706 
L 1112.402388 627.844318 
L 1113.195545 585.005216 
L 1113.988702 574.727987 
L 1114.781859 498.186154 
L 1115.575016 527.088617 
L 1116.368173 509.817524 
L 1117.16133 513.296698 
L 1117.954487 519.167365 
L 1118.747644 487.2668 
L 1119.540801 529.957763 
L 1120.333958 520.041575 
L 1121.127115 489.109229 
L 1121.920272 526.607735 
L 1122.713429 487.91994 
L 1123.506586 524.134386 
L 1124.299743 525.657367 
L 1125.0929 497.978949 
L 1125.886057 529.72245 
L 1126.679214 510.440657 
L 1127.472371 511.091518 
L 1128.265527 529.287149 
L 1129.058684 490.422347 
L 1129.851841 530.776135 
L 1130.644998 519.587852 
L 1131.438155 502.551882 
L 1132.231312 540.411429 
L 1133.024469 513.690216 
L 1133.817626 519.488523 
L 1134.610783 534.514932 
L 1135.40394 489.685262 
L 1136.197097 534.147529 
L 1136.990254 518.233141 
L 1137.783411 493.404687 
L 1138.576568 526.208235 
L 1139.369725 489.514902 
L 1140.162882 525.873783 
L 1140.956039 523.118305 
L 1141.749196 488.149745 
L 1142.542353 529.163985 
L 1143.33551 506.486013 
L 1144.128667 507.636939 
L 1144.921824 531.401262 
L 1145.714981 494.188588 
L 1146.508138 521.08225 
L 1147.301295 580.782689 
L 1148.094452 592.435425 
L 1148.887609 595.352146 
L 1149.680766 579.035695 
L 1150.473923 574.030975 
L 1151.267079 586.333243 
L 1152.060236 589.531144 
L 1152.853393 579.551047 
L 1153.64655 620.676391 
L 1154.439707 475.610455 
L 1155.232864 534.231759 
L 1156.026021 538.569094 
L 1156.819178 539.48841 
L 1157.612335 534.794117 
L 1158.405492 563.571706 
L 1159.198649 570.622357 
L 1159.991806 564.434805 
L 1160.784963 527.866915 
L 1161.57812 571.738336 
L 1162.371277 500.14662 
L 1163.164434 528.745683 
L 1163.957591 608.317241 
L 1164.750748 534.889172 
L 1165.543905 598.8449 
L 1166.337062 522.571141 
L 1167.130219 514.625485 
L 1167.923376 553.770231 
L 1168.716533 484.626699 
L 1169.50969 532.309467 
L 1170.302847 604.619657 
L 1171.096004 609.022135 
L 1171.889161 550.588379 
L 1172.682318 573.861185 
L 1173.475475 477.141413 
L 1174.268631 510.095379 
L 1175.061788 601.742534 
L 1175.854945 541.778959 
L 1176.648102 572.262045 
L 1177.441259 577.887429 
L 1178.234416 574.877741 
L 1179.027573 567.305755 
L 1180.613887 533.038671 
L 1181.407044 614.887675 
L 1182.200201 601.191097 
L 1182.993358 603.92141 
L 1183.786515 597.756459 
L 1184.579672 604.869119 
L 1185.372829 597.393614 
L 1186.959143 485.052313 
L 1187.7523 575.500778 
L 1188.545457 501.430775 
L 1189.338614 509.228387 
L 1190.131771 607.472565 
L 1190.924928 604.484338 
L 1191.718085 562.064393 
L 1192.511242 594.117466 
L 1193.304399 499.515035 
L 1194.097556 520.994221 
L 1194.890713 558.231585 
L 1195.68387 570.134353 
L 1196.477027 561.889285 
L 1197.270183 548.451381 
L 1198.06334 617.738588 
L 1198.856497 493.670957 
L 1199.649654 614.931547 
L 1200.442811 587.257687 
L 1201.235968 542.260885 
L 1202.029125 571.750776 
L 1202.822282 486.689438 
L 1203.615439 513.577592 
L 1204.408596 489.963687 
L 1205.201753 490.144397 
L 1205.99491 479.073296 
L 1206.788067 539.102584 
L 1207.581224 485.318868 
L 1208.374381 550.975819 
L 1209.167538 523.183258 
L 1209.960695 552.570971 
L 1210.753852 527.354887 
L 1211.547009 568.148248 
L 1212.340166 549.759371 
L 1213.133323 566.151886 
L 1213.92648 546.995632 
L 1214.719637 549.965911 
L 1215.512794 503.696824 
L 1216.305951 549.176407 
L 1217.099108 538.994708 
L 1217.892265 499.897157 
L 1218.685422 478.979285 
L 1219.478579 558.919006 
L 1219.478579 558.919006 
" clip-path="url(#p2da98145ec)" style="fill: none; stroke: #1f77b4; stroke-width: 1.5; stroke-linecap: square"/>
   </g>
   <g id="patch_8">
    <path d="M 755.600727 636.3144 
L 755.600727 464.724 
" style="fill: none; stroke: #000000; stroke-width: 0.8; stroke-linejoin: miter; stroke-linecap: square"/>
   </g>
   <g id="patch_9">
    <path d="M 1241.568 636.3144 
L 1241.568 464.724 
" style="fill: none; stroke: #000000; stroke-width: 0.8; stroke-linejoin: miter; stroke-linecap: square"/>
   </g>
   <g id="patch_10">
    <path d="M 755.600727 636.3144 
L 1241.568 636.3144 
" style="fill: none; stroke: #000000; stroke-width: 0.8; stroke-linejoin: miter; stroke-linecap: square"/>
   </g>
   <g id="patch_11">
    <path d="M 755.600727 464.724 
L 1241.568 464.724 
" style="fill: none; stroke: #000000; stroke-width: 0.8; stroke-linejoin: miter; stroke-linecap: square"/>
   </g>
  </g>
 </g>
 <defs>
  <clipPath id="pcc4025d78c">
   <rect x="172.44" y="464.724" width="485.967273" height="171.5904"/>
  </clipPath>
  <clipPath id="p2da98145ec">
   <rect x="755.600727" y="464.724" width="485.967273" height="171.5904"/>
  </clipPath>
 </defs>
</svg>
