<?xml version="1.0" encoding="utf-8" standalone="no"?>
<!DOCTYPE svg PUBLIC "-//W3C//DTD SVG 1.1//EN"
  "http://www.w3.org/Graphics/SVG/1.1/DTD/svg11.dtd">
<svg xmlns:xlink="http://www.w3.org/1999/xlink" width="1382.4pt" height="749.52pt" viewBox="0 0 1382.4 749.52" xmlns="http://www.w3.org/2000/svg" version="1.1">
 <metadata>
  <rdf:RDF xmlns:dc="http://purl.org/dc/elements/1.1/" xmlns:cc="http://creativecommons.org/ns#" xmlns:rdf="http://www.w3.org/1999/02/22-rdf-syntax-ns#">
   <cc:Work>
    <dc:type rdf:resource="http://purl.org/dc/dcmitype/StillImage"/>
    <dc:date>2024-02-09T12:36:45.268810</dc:date>
    <dc:format>image/svg+xml</dc:format>
    <dc:creator>
     <cc:Agent>
      <dc:title>Matplotlib v3.8.2, https://matplotlib.org/</dc:title>
     </cc:Agent>
    </dc:creator>
   </cc:Work>
  </rdf:RDF>
 </metadata>
 <defs>
  <style type="text/css">*{stroke-linejoin: round; stroke-linecap: butt}</style>
 </defs>
 <g id="figure_1">
  <g id="patch_1">
   <path d="M 0 749.52 
L 1382.4 749.52 
L 1382.4 0 
L 0 0 
z
" style="fill: #ffffff"/>
  </g>
  <g id="axes_1">
   <g id="patch_2">
    <path d="M 172.8 667.0728 
L 659.781818 667.0728 
L 659.781818 487.188 
L 172.8 487.188 
z
" style="fill: #ffffff"/>
   </g>
   <g id="matplotlib.axis_1">
    <g id="xtick_1">
     <g id="line2d_1">
      <defs>
       <path id="mf743af0098" d="M 0 0 
L 0 3.5 
" style="stroke: #000000; stroke-width: 0.8"/>
      </defs>
      <g>
       <use xlink:href="#mf743af0098" x="194.935537" y="667.0728" style="stroke: #000000; stroke-width: 0.8"/>
      </g>
     </g>
     <g id="text_1">
      <!-- $\mathdefault{0}$ -->
      <g transform="translate(191.277418 684.450525) scale(0.15 -0.15)">
       <defs>
        <path id="CMR17-30" d="M 2688 2038 
C 2688 2430 2682 3099 2413 3613 
C 2176 4063 1798 4224 1466 4224 
C 1158 4224 768 4082 525 3620 
C 269 3137 243 2539 243 2038 
C 243 1671 250 1112 448 623 
C 723 -39 1216 -128 1466 -128 
C 1760 -128 2208 -7 2470 604 
C 2662 1048 2688 1568 2688 2038 
z
M 1466 -26 
C 1056 -26 813 328 723 816 
C 653 1196 653 1749 653 2109 
C 653 2604 653 3015 736 3407 
C 858 3954 1216 4121 1466 4121 
C 1728 4121 2067 3947 2189 3420 
C 2272 3054 2278 2623 2278 2109 
C 2278 1691 2278 1176 2202 797 
C 2067 96 1690 -26 1466 -26 
z
" transform="scale(0.015625)"/>
       </defs>
       <use xlink:href="#CMR17-30" transform="scale(0.996264)"/>
      </g>
     </g>
    </g>
    <g id="xtick_2">
     <g id="line2d_2">
      <g>
       <use xlink:href="#mf743af0098" x="274.41682" y="667.0728" style="stroke: #000000; stroke-width: 0.8"/>
      </g>
     </g>
     <g id="text_2">
      <!-- $\mathdefault{100}$ -->
      <g transform="translate(263.442463 684.450525) scale(0.15 -0.15)">
       <defs>
        <path id="CMR17-31" d="M 1702 4083 
C 1702 4217 1696 4224 1606 4224 
C 1357 3927 979 3833 621 3820 
C 602 3820 570 3820 563 3808 
C 557 3795 557 3782 557 3648 
C 755 3648 1088 3686 1344 3839 
L 1344 467 
C 1344 243 1331 166 781 166 
L 589 166 
L 589 0 
C 896 6 1216 12 1523 12 
C 1830 12 2150 6 2458 0 
L 2458 166 
L 2266 166 
C 1715 166 1702 236 1702 467 
L 1702 4083 
z
" transform="scale(0.015625)"/>
       </defs>
       <use xlink:href="#CMR17-31" transform="scale(0.996264)"/>
       <use xlink:href="#CMR17-30" transform="translate(45.690477 0) scale(0.996264)"/>
       <use xlink:href="#CMR17-30" transform="translate(91.380954 0) scale(0.996264)"/>
      </g>
     </g>
    </g>
    <g id="xtick_3">
     <g id="line2d_3">
      <g>
       <use xlink:href="#mf743af0098" x="353.898102" y="667.0728" style="stroke: #000000; stroke-width: 0.8"/>
      </g>
     </g>
     <g id="text_3">
      <!-- $\mathdefault{200}$ -->
      <g transform="translate(342.923746 684.450525) scale(0.15 -0.15)">
       <defs>
        <path id="CMR17-32" d="M 2669 990 
L 2554 990 
C 2490 537 2438 460 2413 422 
C 2381 371 1920 371 1830 371 
L 602 371 
C 832 620 1280 1073 1824 1596 
C 2214 1966 2669 2400 2669 3033 
C 2669 3788 2067 4224 1395 4224 
C 691 4224 262 3603 262 3027 
C 262 2777 448 2745 525 2745 
C 589 2745 781 2783 781 3007 
C 781 3206 614 3264 525 3264 
C 486 3264 448 3257 422 3244 
C 544 3788 915 4057 1306 4057 
C 1862 4057 2227 3616 2227 3033 
C 2227 2477 1901 1998 1536 1583 
L 262 147 
L 262 0 
L 2515 0 
L 2669 990 
z
" transform="scale(0.015625)"/>
       </defs>
       <use xlink:href="#CMR17-32" transform="scale(0.996264)"/>
       <use xlink:href="#CMR17-30" transform="translate(45.690477 0) scale(0.996264)"/>
       <use xlink:href="#CMR17-30" transform="translate(91.380954 0) scale(0.996264)"/>
      </g>
     </g>
    </g>
    <g id="xtick_4">
     <g id="line2d_4">
      <g>
       <use xlink:href="#mf743af0098" x="433.379385" y="667.0728" style="stroke: #000000; stroke-width: 0.8"/>
      </g>
     </g>
     <g id="text_4">
      <!-- $\mathdefault{300}$ -->
      <g transform="translate(422.405028 684.450525) scale(0.15 -0.15)">
       <defs>
        <path id="CMR17-33" d="M 1414 2176 
C 1984 2176 2234 1673 2234 1094 
C 2234 322 1824 25 1453 25 
C 1114 25 563 193 390 691 
C 422 678 454 678 486 678 
C 640 678 755 780 755 947 
C 755 1132 614 1216 486 1216 
C 378 1216 211 1164 211 927 
C 211 335 787 -128 1466 -128 
C 2176 -128 2720 432 2720 1087 
C 2720 1718 2208 2176 1600 2246 
C 2086 2347 2554 2776 2554 3353 
C 2554 3856 2048 4224 1472 4224 
C 890 4224 378 3862 378 3347 
C 378 3123 544 3084 627 3084 
C 762 3084 877 3167 877 3334 
C 877 3500 762 3584 627 3584 
C 602 3584 570 3584 544 3571 
C 730 3999 1235 4076 1459 4076 
C 1683 4076 2106 3966 2106 3347 
C 2106 3167 2080 2851 1862 2574 
C 1670 2329 1453 2316 1242 2297 
C 1210 2297 1062 2284 1037 2284 
C 992 2278 966 2272 966 2227 
C 966 2182 973 2176 1101 2176 
L 1414 2176 
z
" transform="scale(0.015625)"/>
       </defs>
       <use xlink:href="#CMR17-33" transform="scale(0.996264)"/>
       <use xlink:href="#CMR17-30" transform="translate(45.690477 0) scale(0.996264)"/>
       <use xlink:href="#CMR17-30" transform="translate(91.380954 0) scale(0.996264)"/>
      </g>
     </g>
    </g>
    <g id="xtick_5">
     <g id="line2d_5">
      <g>
       <use xlink:href="#mf743af0098" x="512.860667" y="667.0728" style="stroke: #000000; stroke-width: 0.8"/>
      </g>
     </g>
     <g id="text_5">
      <!-- $\mathdefault{400}$ -->
      <g transform="translate(501.886311 684.450525) scale(0.15 -0.15)">
       <defs>
        <path id="CMR17-34" d="M 2150 4147 
C 2150 4281 2144 4288 2029 4288 
L 128 1254 
L 128 1088 
L 1779 1088 
L 1779 460 
C 1779 230 1766 166 1318 166 
L 1197 166 
L 1197 0 
C 1402 12 1747 12 1965 12 
C 2182 12 2528 12 2733 0 
L 2733 166 
L 2611 166 
C 2163 166 2150 230 2150 460 
L 2150 1088 
L 2803 1088 
L 2803 1254 
L 2150 1254 
L 2150 4147 
z
M 1798 3723 
L 1798 1254 
L 256 1254 
L 1798 3723 
z
" transform="scale(0.015625)"/>
       </defs>
       <use xlink:href="#CMR17-34" transform="scale(0.996264)"/>
       <use xlink:href="#CMR17-30" transform="translate(45.690477 0) scale(0.996264)"/>
       <use xlink:href="#CMR17-30" transform="translate(91.380954 0) scale(0.996264)"/>
      </g>
     </g>
    </g>
    <g id="xtick_6">
     <g id="line2d_6">
      <g>
       <use xlink:href="#mf743af0098" x="592.34195" y="667.0728" style="stroke: #000000; stroke-width: 0.8"/>
      </g>
     </g>
     <g id="text_6">
      <!-- $\mathdefault{500}$ -->
      <g transform="translate(581.367593 684.450525) scale(0.15 -0.15)">
       <defs>
        <path id="CMR17-35" d="M 730 3750 
C 794 3724 1056 3641 1325 3641 
C 1920 3641 2246 3961 2432 4140 
C 2432 4191 2432 4224 2394 4224 
C 2387 4224 2374 4224 2323 4198 
C 2099 4102 1837 4032 1517 4032 
C 1325 4032 1037 4055 723 4191 
C 653 4224 640 4224 634 4224 
C 602 4224 595 4217 595 4090 
L 595 2231 
C 595 2113 595 2080 659 2080 
C 691 2080 704 2093 736 2139 
C 941 2435 1222 2560 1542 2560 
C 1766 2560 2246 2415 2246 1293 
C 2246 1087 2246 716 2054 422 
C 1894 159 1645 25 1370 25 
C 947 25 518 319 403 812 
C 429 806 480 793 506 793 
C 589 793 749 838 749 1036 
C 749 1209 627 1280 506 1280 
C 358 1280 262 1190 262 1011 
C 262 454 704 -128 1382 -128 
C 2042 -128 2669 441 2669 1267 
C 2669 2054 2170 2662 1549 2662 
C 1222 2662 947 2540 730 2304 
L 730 3750 
z
" transform="scale(0.015625)"/>
       </defs>
       <use xlink:href="#CMR17-35" transform="scale(0.996264)"/>
       <use xlink:href="#CMR17-30" transform="translate(45.690477 0) scale(0.996264)"/>
       <use xlink:href="#CMR17-30" transform="translate(91.380954 0) scale(0.996264)"/>
      </g>
     </g>
    </g>
    <g id="text_7">
     <!-- Sample [\#] -->
     <g transform="translate(380.522635 702.56424) scale(0.15 -0.15)">
      <defs>
       <path id="CMR17-53" d="M 2803 4351 
C 2803 4467 2797 4473 2758 4473 
C 2720 4473 2707 4447 2682 4390 
L 2490 3965 
C 2246 4320 1875 4480 1472 4480 
C 819 4480 294 3958 294 3301 
C 294 3101 339 2817 557 2546 
C 794 2250 1018 2198 1530 2063 
C 1722 2011 2042 1927 2106 1901 
C 2470 1747 2662 1360 2662 999 
C 2662 534 2336 38 1779 38 
C 1094 38 454 425 410 1328 
C 403 1431 397 1437 352 1437 
C 301 1437 294 1431 294 1302 
L 294 0 
C 294 -116 301 -122 339 -122 
C 384 -122 397 -90 486 109 
C 493 128 493 141 614 386 
C 934 -39 1472 -128 1779 -128 
C 2477 -128 2970 457 2970 1141 
C 2970 1476 2848 1734 2778 1850 
C 2509 2263 2221 2340 1914 2417 
C 1869 2437 1856 2437 1498 2527 
C 1152 2617 1005 2662 845 2836 
C 666 3036 602 3243 602 3449 
C 602 3868 934 4326 1478 4326 
C 2157 4326 2579 3842 2675 3036 
C 2694 2920 2701 2914 2746 2914 
C 2803 2914 2803 2933 2803 3043 
L 2803 4351 
z
" transform="scale(0.015625)"/>
       <path id="CMR17-61" d="M 2304 1656 
C 2304 2048 2304 2275 2035 2534 
C 1798 2751 1523 2816 1306 2816 
C 800 2816 435 2408 435 1977 
C 435 1740 627 1728 666 1728 
C 749 1728 896 1779 896 1958 
C 896 2118 774 2188 666 2188 
C 640 2188 608 2182 589 2176 
C 723 2594 1069 2713 1293 2713 
C 1613 2713 1965 2421 1965 1875 
L 1965 1632 
C 1587 1619 1133 1568 774 1373 
C 371 1147 256 822 256 576 
C 256 77 832 -64 1171 -64 
C 1523 -64 1850 135 1990 505 
C 2003 219 2182 -39 2464 -39 
C 2598 -39 2938 51 2938 563 
L 2938 926 
L 2822 926 
L 2822 557 
C 2822 161 2650 109 2566 109 
C 2304 109 2304 446 2304 732 
L 2304 1656 
z
M 1965 887 
C 1965 323 1568 38 1216 38 
C 896 38 646 278 646 576 
C 646 771 730 1114 1101 1322 
C 1408 1497 1760 1523 1965 1536 
L 1965 887 
z
" transform="scale(0.015625)"/>
       <path id="CMR17-6d" d="M 4326 1954 
C 4326 2276 4269 2816 3507 2816 
C 3072 2816 2771 2520 2656 2173 
L 2650 2173 
C 2573 2700 2195 2816 1837 2816 
C 1331 2816 1069 2424 973 2166 
L 966 2166 
L 966 2816 
L 211 2745 
L 211 2578 
C 589 2578 646 2540 646 2231 
L 646 443 
C 646 198 621 166 211 166 
L 211 0 
C 365 12 646 12 813 12 
C 979 12 1267 12 1421 0 
L 1421 166 
C 1011 166 986 192 986 443 
L 986 1678 
C 986 2269 1344 2713 1792 2713 
C 2266 2713 2317 2289 2317 1980 
L 2317 443 
C 2317 198 2291 166 1882 166 
L 1882 0 
C 2035 12 2317 12 2483 12 
C 2650 12 2938 12 3091 0 
L 3091 166 
C 2682 166 2656 192 2656 443 
L 2656 1678 
C 2656 2269 3014 2713 3462 2713 
C 3936 2713 3987 2289 3987 1980 
L 3987 443 
C 3987 198 3962 166 3552 166 
L 3552 0 
C 3706 12 3987 12 4154 12 
C 4320 12 4608 12 4762 0 
L 4762 166 
C 4352 166 4326 192 4326 443 
L 4326 1954 
z
" transform="scale(0.015625)"/>
       <path id="CMR17-70" d="M 1408 -1114 
C 998 -1114 973 -1088 973 -834 
L 973 380 
C 1158 109 1427 -64 1766 -64 
C 2406 -64 3053 503 3053 1382 
C 3053 2196 2496 2816 1837 2816 
C 1453 2816 1139 2603 960 2345 
L 960 2816 
L 198 2745 
L 198 2577 
C 576 2577 634 2539 634 2228 
L 634 -834 
C 634 -1081 608 -1114 198 -1114 
L 198 -1280 
C 352 -1268 634 -1268 800 -1268 
C 966 -1268 1254 -1268 1408 -1280 
L 1408 -1114 
z
M 973 2015 
C 973 2106 973 2241 1222 2481 
C 1254 2506 1472 2700 1792 2700 
C 2259 2700 2643 2112 2643 1376 
C 2643 639 2234 38 1728 38 
C 1498 38 1248 148 1056 451 
C 973 594 973 632 973 736 
L 973 2015 
z
" transform="scale(0.015625)"/>
       <path id="CMR17-6c" d="M 979 4416 
L 218 4345 
L 218 4179 
C 595 4179 653 4141 653 3835 
L 653 439 
C 653 198 627 166 218 166 
L 218 0 
C 371 12 653 12 813 12 
C 979 12 1261 12 1414 0 
L 1414 166 
C 1005 166 979 191 979 439 
L 979 4416 
z
" transform="scale(0.015625)"/>
       <path id="CMR17-65" d="M 2438 1503 
C 2464 1529 2464 1542 2464 1606 
C 2464 2251 2118 2816 1389 2816 
C 710 2816 173 2175 173 1394 
C 173 554 781 -64 1459 -64 
C 2176 -64 2458 619 2458 755 
C 2458 800 2419 800 2406 800 
C 2362 800 2355 787 2330 709 
C 2189 270 1837 51 1504 51 
C 1229 51 954 206 781 490 
C 582 819 582 1200 582 1503 
L 2438 1503 
z
M 589 1600 
C 634 2511 1126 2713 1382 2713 
C 1818 2713 2112 2308 2118 1600 
L 589 1600 
z
" transform="scale(0.015625)"/>
       <path id="CMR17-5b" d="M 1504 -1600 
L 1504 -1376 
L 902 -1376 
L 902 4575 
L 1504 4575 
L 1504 4800 
L 678 4800 
L 678 -1600 
L 1504 -1600 
z
" transform="scale(0.015625)"/>
       <path id="CMR17-23" d="M 3104 896 
L 4422 896 
C 4531 896 4640 896 4640 1011 
C 4640 1120 4544 1120 4448 1120 
L 3168 1120 
L 3386 2015 
L 4448 2015 
C 4544 2015 4640 2015 4640 2124 
C 4640 2240 4531 2240 4422 2240 
L 3450 2240 
L 3942 4185 
C 3962 4249 3968 4281 3968 4300 
C 3968 4364 3917 4416 3853 4416 
C 3763 4416 3744 4326 3731 4275 
L 3219 2240 
L 2061 2240 
L 2554 4185 
C 2573 4249 2579 4281 2579 4300 
C 2579 4364 2528 4416 2464 4416 
C 2374 4416 2355 4326 2342 4275 
L 1830 2240 
L 512 2240 
C 403 2240 294 2240 294 2124 
C 294 2015 390 2015 486 2015 
L 1766 2015 
L 1549 1120 
L 486 1120 
C 390 1120 294 1120 294 1011 
C 294 896 403 896 512 896 
L 1485 896 
L 992 -1049 
C 973 -1114 966 -1146 966 -1165 
C 966 -1229 1018 -1280 1082 -1280 
C 1171 -1280 1190 -1191 1203 -1140 
L 1715 896 
L 2874 896 
L 2381 -1049 
C 2362 -1114 2355 -1146 2355 -1165 
C 2355 -1229 2406 -1280 2470 -1280 
C 2560 -1280 2579 -1191 2592 -1140 
L 3104 896 
z
M 1779 1120 
L 1997 2015 
L 3155 2015 
L 2938 1120 
L 1779 1120 
z
" transform="scale(0.015625)"/>
       <path id="CMR17-5d" d="M 915 4800 
L 90 4800 
L 90 4575 
L 691 4575 
L 691 -1376 
L 90 -1376 
L 90 -1600 
L 915 -1600 
L 915 4800 
z
" transform="scale(0.015625)"/>
      </defs>
      <use xlink:href="#CMR17-53" transform="scale(0.996264)"/>
      <use xlink:href="#CMR17-61" transform="translate(50.89537 0) scale(0.996264)"/>
      <use xlink:href="#CMR17-6d" transform="translate(96.585847 0) scale(0.996264)"/>
      <use xlink:href="#CMR17-70" transform="translate(173.505437 0) scale(0.996264)"/>
      <use xlink:href="#CMR17-6c" transform="translate(224.400807 0) scale(0.996264)"/>
      <use xlink:href="#CMR17-65" transform="translate(249.271865 0) scale(0.996264)"/>
      <use xlink:href="#CMR17-5b" transform="translate(319.833492 0) scale(0.996264)"/>
      <use xlink:href="#CMR17-23" transform="translate(344.70455 0) scale(0.996264)"/>
      <use xlink:href="#CMR17-5d" transform="translate(421.62414 0) scale(0.996264)"/>
     </g>
    </g>
   </g>
   <g id="matplotlib.axis_2">
    <g id="ytick_1">
     <g id="line2d_7">
      <defs>
       <path id="m257e709246" d="M 0 0 
L -3.5 0 
" style="stroke: #000000; stroke-width: 0.8"/>
      </defs>
      <g>
       <use xlink:href="#m257e709246" x="172.8" y="659.310896" style="stroke: #000000; stroke-width: 0.8"/>
      </g>
     </g>
     <g id="text_8">
      <!-- $\mathdefault{0}$ -->
      <g transform="translate(158.483762 664.499758) scale(0.15 -0.15)">
       <use xlink:href="#CMR17-30" transform="scale(0.996264)"/>
      </g>
     </g>
    </g>
    <g id="ytick_2">
     <g id="line2d_8">
      <g>
       <use xlink:href="#m257e709246" x="172.8" y="602.969071" style="stroke: #000000; stroke-width: 0.8"/>
      </g>
     </g>
     <g id="text_9">
      <!-- $\mathdefault{10000}$ -->
      <g transform="translate(129.218811 608.157933) scale(0.15 -0.15)">
       <use xlink:href="#CMR17-31" transform="scale(0.996264)"/>
       <use xlink:href="#CMR17-30" transform="translate(45.690477 0) scale(0.996264)"/>
       <use xlink:href="#CMR17-30" transform="translate(91.380954 0) scale(0.996264)"/>
       <use xlink:href="#CMR17-30" transform="translate(137.071431 0) scale(0.996264)"/>
       <use xlink:href="#CMR17-30" transform="translate(182.761908 0) scale(0.996264)"/>
      </g>
     </g>
    </g>
    <g id="ytick_3">
     <g id="line2d_9">
      <g>
       <use xlink:href="#m257e709246" x="172.8" y="546.627246" style="stroke: #000000; stroke-width: 0.8"/>
      </g>
     </g>
     <g id="text_10">
      <!-- $\mathdefault{20000}$ -->
      <g transform="translate(129.218811 551.816108) scale(0.15 -0.15)">
       <use xlink:href="#CMR17-32" transform="scale(0.996264)"/>
       <use xlink:href="#CMR17-30" transform="translate(45.690477 0) scale(0.996264)"/>
       <use xlink:href="#CMR17-30" transform="translate(91.380954 0) scale(0.996264)"/>
       <use xlink:href="#CMR17-30" transform="translate(137.071431 0) scale(0.996264)"/>
       <use xlink:href="#CMR17-30" transform="translate(182.761908 0) scale(0.996264)"/>
      </g>
     </g>
    </g>
    <g id="ytick_4">
     <g id="line2d_10">
      <g>
       <use xlink:href="#m257e709246" x="172.8" y="490.285421" style="stroke: #000000; stroke-width: 0.8"/>
      </g>
     </g>
     <g id="text_11">
      <!-- $\mathdefault{30000}$ -->
      <g transform="translate(129.218811 495.474284) scale(0.15 -0.15)">
       <use xlink:href="#CMR17-33" transform="scale(0.996264)"/>
       <use xlink:href="#CMR17-30" transform="translate(45.690477 0) scale(0.996264)"/>
       <use xlink:href="#CMR17-30" transform="translate(91.380954 0) scale(0.996264)"/>
       <use xlink:href="#CMR17-30" transform="translate(137.071431 0) scale(0.996264)"/>
       <use xlink:href="#CMR17-30" transform="translate(182.761908 0) scale(0.996264)"/>
      </g>
     </g>
    </g>
    <g id="text_12">
     <!-- Amplitude [ADC Value] -->
     <g transform="translate(121.482821 654.246678) rotate(-90) scale(0.15 -0.15)">
      <defs>
       <path id="CMR17-41" d="M 2323 4441 
C 2291 4524 2278 4544 2214 4544 
C 2150 4544 2138 4524 2106 4441 
L 749 580 
C 627 236 371 166 147 166 
L 147 0 
C 262 12 518 12 640 12 
C 800 12 1056 12 1210 0 
L 1210 166 
C 909 179 864 382 864 459 
C 864 516 877 548 890 586 
L 1229 1536 
L 2906 1536 
L 3290 453 
C 3322 376 3322 363 3322 338 
C 3322 166 3046 166 2925 166 
L 2925 0 
C 3110 12 3443 12 3642 12 
C 3808 12 4128 12 4282 0 
L 4282 166 
C 3942 166 3827 166 3744 402 
L 2323 4441 
z
M 2067 3924 
L 2848 1702 
L 1286 1702 
L 2067 3924 
z
" transform="scale(0.015625)"/>
       <path id="CMR17-69" d="M 992 3961 
C 992 4102 877 4224 730 4224 
C 589 4224 467 4108 467 3961 
C 467 3820 582 3699 730 3699 
C 870 3699 992 3814 992 3961 
z
M 243 2745 
L 243 2579 
C 602 2579 653 2540 653 2231 
L 653 443 
C 653 198 627 166 218 166 
L 218 0 
C 371 12 646 12 806 12 
C 960 12 1222 12 1370 0 
L 1370 166 
C 992 166 979 205 979 436 
L 979 2816 
L 243 2745 
z
" transform="scale(0.015625)"/>
       <path id="CMR17-74" d="M 966 2585 
L 1862 2585 
L 1862 2752 
L 966 2752 
L 966 3968 
L 851 3968 
C 838 3292 614 2700 70 2687 
L 70 2585 
L 627 2585 
L 627 778 
C 627 655 627 -64 1370 -64 
C 1747 -64 1965 308 1965 784 
L 1965 1151 
L 1850 1151 
L 1850 790 
C 1850 347 1677 51 1408 51 
C 1222 51 966 179 966 765 
L 966 2585 
z
" transform="scale(0.015625)"/>
       <path id="CMR17-75" d="M 1882 2745 
L 1882 2579 
C 2259 2579 2317 2540 2317 2229 
L 2317 1053 
C 2317 510 2029 38 1555 38 
C 1030 38 986 355 986 691 
L 986 2816 
L 211 2745 
L 211 2579 
C 467 2579 640 2579 646 2320 
L 646 1079 
C 646 646 646 368 813 187 
C 896 103 1056 -64 1517 -64 
C 2061 -64 2272 400 2323 536 
L 2330 536 
L 2330 -64 
L 3091 -13 
L 3091 154 
C 2714 154 2656 193 2656 503 
L 2656 2816 
L 1882 2745 
z
" transform="scale(0.015625)"/>
       <path id="CMR17-64" d="M 1869 4345 
L 1869 4179 
C 2246 4179 2304 4141 2304 3843 
L 2304 2371 
C 2278 2403 2016 2816 1498 2816 
C 845 2816 211 2228 211 1376 
C 211 529 806 -64 1434 -64 
C 1978 -64 2259 361 2291 406 
L 2291 -64 
L 3066 -13 
L 3066 154 
C 2688 154 2630 193 2630 503 
L 2630 4416 
L 1869 4345 
z
M 2291 762 
C 2291 568 2176 393 2029 264 
C 1811 70 1594 38 1472 38 
C 1286 38 621 135 621 1369 
C 621 2636 1363 2713 1530 2713 
C 1824 2713 2061 2545 2208 2313 
C 2291 2177 2291 2157 2291 2041 
L 2291 762 
z
" transform="scale(0.015625)"/>
       <path id="CMR17-44" d="M 333 4352 
L 333 4185 
C 774 4185 845 4185 845 3898 
L 845 453 
C 845 166 774 166 333 166 
L 333 0 
L 2368 0 
C 3398 0 4224 943 4224 2140 
C 4224 3344 3411 4352 2368 4352 
L 333 4352 
z
M 1523 166 
C 1267 166 1254 198 1254 414 
L 1254 3936 
C 1254 4153 1267 4185 1523 4185 
L 2240 4185 
C 2771 4185 3750 3873 3750 2140 
C 3750 1242 3488 879 3366 707 
C 3213 510 2848 166 2240 166 
L 1523 166 
z
" transform="scale(0.015625)"/>
       <path id="CMR17-43" d="M 3974 4351 
C 3974 4467 3968 4473 3930 4473 
C 3904 4473 3898 4467 3853 4390 
L 3571 3849 
C 3258 4249 2874 4480 2381 4480 
C 1286 4480 294 3507 294 2179 
C 294 837 1286 -128 2387 -128 
C 3366 -128 3974 741 3974 1482 
C 3974 1547 3974 1573 3917 1573 
C 3866 1573 3866 1553 3859 1495 
C 3808 592 3168 38 2477 38 
C 1824 38 781 502 781 2179 
C 781 3862 1843 4313 2464 4313 
C 3187 4313 3712 3681 3834 2785 
C 3846 2707 3846 2695 3904 2695 
C 3974 2695 3974 2707 3974 2824 
L 3974 4351 
z
" transform="scale(0.015625)"/>
       <path id="CMR17-56" d="M 3776 3762 
C 3834 3903 3936 4179 4365 4185 
L 4365 4352 
C 4218 4339 4051 4339 3891 4339 
C 3738 4339 3475 4339 3328 4352 
L 3328 4185 
C 3648 4166 3661 3942 3661 3903 
C 3661 3833 3642 3788 3622 3737 
L 2362 448 
L 1043 3903 
C 1024 3948 1011 3980 1011 4012 
C 1011 4185 1267 4185 1402 4185 
L 1402 4352 
C 1197 4339 896 4339 685 4339 
C 518 4339 218 4339 64 4352 
L 64 4185 
C 435 4185 506 4160 582 3955 
L 2106 -26 
C 2138 -116 2144 -128 2214 -128 
C 2285 -128 2291 -116 2323 -26 
L 3776 3762 
z
" transform="scale(0.015625)"/>
      </defs>
      <use xlink:href="#CMR17-41" transform="scale(0.996264)"/>
      <use xlink:href="#CMR17-6d" transform="translate(69.07243 0) scale(0.996264)"/>
      <use xlink:href="#CMR17-70" transform="translate(145.99202 0) scale(0.996264)"/>
      <use xlink:href="#CMR17-6c" transform="translate(196.887389 0) scale(0.996264)"/>
      <use xlink:href="#CMR17-69" transform="translate(221.758448 0) scale(0.996264)"/>
      <use xlink:href="#CMR17-74" transform="translate(246.629506 0) scale(0.996264)"/>
      <use xlink:href="#CMR17-75" transform="translate(281.910274 0) scale(0.996264)"/>
      <use xlink:href="#CMR17-64" transform="translate(332.805644 0) scale(0.996264)"/>
      <use xlink:href="#CMR17-65" transform="translate(383.701014 0) scale(0.996264)"/>
      <use xlink:href="#CMR17-5b" transform="translate(454.262641 0) scale(0.996264)"/>
      <use xlink:href="#CMR17-41" transform="translate(479.133699 0) scale(0.996264)"/>
      <use xlink:href="#CMR17-44" transform="translate(548.206129 0) scale(0.996264)"/>
      <use xlink:href="#CMR17-43" transform="translate(618.599685 0) scale(0.996264)"/>
      <use xlink:href="#CMR17-56" transform="translate(715.185532 0) scale(0.996264)"/>
      <use xlink:href="#CMR17-61" transform="translate(776.450706 0) scale(0.996264)"/>
      <use xlink:href="#CMR17-6c" transform="translate(822.141183 0) scale(0.996264)"/>
      <use xlink:href="#CMR17-75" transform="translate(847.012242 0) scale(0.996264)"/>
      <use xlink:href="#CMR17-65" transform="translate(897.907611 0) scale(0.996264)"/>
      <use xlink:href="#CMR17-5d" transform="translate(938.393272 0) scale(0.996264)"/>
     </g>
    </g>
   </g>
   <g id="line2d_11">
    <path d="M 194.935537 534.869654 
L 195.73035 537.652401 
L 196.525163 582.325965 
L 197.319976 640.334793 
L 198.114788 553.277903 
L 198.909601 581.483743 
L 199.704414 628.635553 
L 200.499227 529.071805 
L 201.29404 605.704868 
L 202.088853 551.360554 
L 202.883665 556.701384 
L 203.678478 567.426452 
L 204.473291 580.689544 
L 205.268104 596.234776 
L 206.062917 637.96241 
L 206.85773 604.861507 
L 207.652542 580.190913 
L 208.447355 574.615328 
L 209.242168 552.311377 
L 210.036981 533.993373 
L 210.831794 606.010957 
L 212.421419 540.199403 
L 213.216232 616.996301 
L 214.011045 578.27786 
L 214.805858 547.651512 
L 215.600671 601.015022 
L 216.395483 583.2264 
L 217.190296 540.789573 
L 217.985109 603.625651 
L 218.779922 570.889967 
L 219.574735 561.508156 
L 220.369548 544.857684 
L 221.16436 633.426529 
L 221.959173 578.80941 
L 222.753986 555.828438 
L 223.548799 614.846976 
L 224.343612 591.489622 
L 225.138425 555.046134 
L 225.933237 567.713422 
L 226.72805 616.459339 
L 227.522863 538.653645 
L 228.317676 530.669029 
L 229.112489 610.118639 
L 229.907302 532.991787 
L 230.702114 554.811281 
L 231.496927 601.890009 
L 232.29174 515.982741 
L 233.086553 561.141032 
L 233.881366 561.890279 
L 234.676178 645.693607 
L 235.470991 579.05962 
L 236.265804 553.838592 
L 237.060617 585.720379 
L 237.85543 605.864017 
L 238.650243 561.770971 
L 239.445055 552.457767 
L 240.239868 638.272346 
L 241.034681 525.467689 
L 241.829494 540.778524 
L 242.624307 595.893308 
L 243.41912 540.675701 
L 244.213932 560.099545 
L 245.008745 574.106298 
L 245.803558 525.796551 
L 246.598371 599.530475 
L 247.393184 591.383613 
L 248.187996 649.016017 
L 248.982809 559.806204 
L 249.777622 595.187142 
L 250.572435 607.14241 
L 251.367248 540.845673 
L 252.162061 577.139145 
L 252.956873 563.726352 
L 253.751686 633.490494 
L 254.546499 553.05948 
L 255.341312 526.433643 
L 256.136125 614.447009 
L 256.930938 563.90691 
L 257.72575 539.151929 
L 258.520563 619.085529 
L 259.315376 538.05662 
L 260.110189 543.946509 
L 261.699815 620.269356 
L 262.494627 555.740393 
L 263.28944 572.381331 
L 264.084253 603.821285 
L 264.879066 588.447246 
L 265.673879 555.937435 
L 266.468691 569.031017 
L 267.263504 631.124423 
L 268.058317 553.617869 
L 268.85313 521.613171 
L 269.647943 617.746395 
L 270.442756 542.745085 
L 271.237568 544.209037 
L 272.032381 596.001716 
L 272.827194 525.333393 
L 273.622007 558.91432 
L 274.41682 565.982137 
L 275.211633 640.166517 
L 276.006445 563.17177 
L 276.801258 570.056064 
L 277.596071 616.238657 
L 278.390884 554.871045 
L 279.185697 592.144128 
L 279.98051 568.611501 
L 280.775322 613.783471 
L 281.570135 540.433343 
L 282.364948 525.870412 
L 283.159761 637.741139 
L 283.954574 549.130243 
L 284.749386 533.031942 
L 285.544199 626.937103 
L 286.339012 550.029456 
L 287.133825 520.595375 
L 287.928638 604.661879 
L 288.723451 608.485469 
L 289.518263 575.449699 
L 290.313076 583.541535 
L 291.107889 620.315607 
L 291.902702 534.702631 
L 292.697515 612.941156 
L 293.492328 574.307616 
L 294.28714 586.622398 
L 295.081953 575.174114 
L 295.876766 522.248337 
L 296.671579 597.350547 
L 297.466392 565.794889 
L 298.261205 504.116646 
L 299.056017 617.04664 
L 299.85083 540.273693 
L 300.645643 516.956574 
L 301.440456 632.852824 
L 302.235269 571.709922 
L 303.030081 601.337232 
L 303.824894 562.70794 
L 304.619707 628.24833 
L 305.41452 568.507957 
L 306.209333 604.613784 
L 307.004146 561.606733 
L 307.798958 564.396951 
L 308.593771 598.37133 
L 309.388584 522.902606 
L 310.183397 563.308399 
L 310.97821 578.280644 
L 311.773023 533.005168 
L 312.567835 590.515068 
L 313.362648 587.329004 
L 314.157461 505.608681 
L 314.952274 600.516914 
L 315.747087 562.718427 
L 316.541899 629.589749 
L 317.336712 584.420726 
L 318.131525 605.835852 
L 318.926338 578.099168 
L 319.721151 574.436184 
L 320.515964 564.023852 
L 321.310776 566.403832 
L 322.105589 630.615539 
L 322.900402 553.035468 
L 323.695215 529.902957 
L 324.490028 610.544554 
L 325.284841 538.463943 
L 326.079653 534.082277 
L 326.874466 598.131828 
L 327.669279 520.893503 
L 328.464092 574.322917 
L 329.258905 587.896989 
L 330.053718 628.878255 
L 330.84853 565.417762 
L 331.643343 589.092492 
L 332.438156 620.396634 
L 333.232969 544.107303 
L 334.027782 607.442634 
L 334.822594 562.474903 
L 335.617407 609.118979 
L 336.41222 550.726147 
L 337.207033 520.443208 
L 338.001846 632.417718 
L 338.796659 555.367877 
L 339.591471 535.958459 
L 340.386284 614.605234 
L 341.181097 555.856994 
L 341.97591 524.656179 
L 342.770723 613.712772 
L 343.565536 601.340671 
L 344.360348 581.042208 
L 345.155161 579.644777 
L 345.949974 616.682891 
L 346.744787 538.26426 
L 347.5396 615.879186 
L 348.334413 564.097415 
L 349.129225 587.737532 
L 349.924038 574.376943 
L 350.718851 526.024306 
L 351.513664 597.735702 
L 352.308477 569.399484 
L 353.103289 522.203615 
L 353.898102 606.568169 
L 354.692915 534.650086 
L 355.487728 529.222948 
L 356.282541 645.53267 
L 357.077354 574.285162 
L 357.872166 639.192007 
L 358.666979 526.278835 
L 359.461792 592.349776 
L 361.051418 517.538985 
L 361.846231 587.756811 
L 362.641043 591.486348 
L 363.435856 560.986763 
L 364.230669 584.847471 
L 365.025482 569.568487 
L 365.820295 572.554884 
L 366.615107 579.94357 
L 367.40992 555.616386 
L 368.204733 565.360144 
L 368.999546 603.191098 
L 369.794359 578.694911 
L 371.383984 601.757667 
L 372.178797 618.756149 
L 372.97361 601.563111 
L 373.768423 598.227483 
L 374.563236 598.280221 
L 375.358049 595.69188 
L 376.152861 617.121524 
L 376.947674 605.141081 
L 377.742487 559.377005 
L 378.5373 495.364582 
L 379.332113 536.645136 
L 380.126926 530.707786 
L 380.921738 613.871046 
L 381.716551 537.834961 
L 382.511364 543.226929 
L 383.306177 611.659005 
L 384.10099 542.695885 
L 384.895802 582.395331 
L 385.690615 570.144049 
L 386.485428 529.765844 
L 387.280241 615.916367 
L 388.075054 552.216476 
L 388.869867 562.512802 
L 389.664679 602.263065 
L 390.459492 541.101874 
L 391.254305 578.04572 
L 392.049118 558.076587 
L 392.843931 544.15373 
L 393.638744 597.421365 
L 394.433556 524.481046 
L 396.023182 595.751419 
L 396.817995 541.69957 
L 397.612808 596.370777 
L 398.407621 536.946081 
L 399.202433 543.137629 
L 399.997246 602.684468 
L 400.792059 538.438303 
L 401.586872 582.509478 
L 402.381685 575.818936 
L 403.176497 536.873475 
L 403.97131 601.064068 
L 404.766123 550.435194 
L 405.560936 559.783227 
L 406.355749 599.068577 
L 407.150562 531.059604 
L 407.945374 580.525756 
L 408.740187 547.485744 
L 409.535 536.309616 
L 410.329813 617.057878 
L 411.124626 532.564965 
L 411.919439 560.66994 
L 412.714251 578.384178 
L 413.509064 541.913757 
L 414.303877 585.862152 
L 415.09869 558.786989 
L 416.688316 585.451517 
L 417.483128 573.597186 
L 418.277941 574.041582 
L 419.072754 557.21908 
L 419.867567 593.625093 
L 420.66238 561.002345 
L 421.457192 641.931547 
L 422.252005 552.068403 
L 423.046818 560.086285 
L 423.841631 574.64784 
L 424.636444 561.153401 
L 425.431257 588.37601 
L 426.226069 559.775337 
L 427.020882 574.655081 
L 427.815695 555.054387 
L 428.610508 592.95364 
L 429.405321 572.989866 
L 430.200134 515.206687 
L 430.994946 573.926307 
L 431.789759 579.761862 
L 432.584572 571.363882 
L 433.379385 630.04323 
L 434.174198 611.667616 
L 434.96901 607.834011 
L 435.763823 577.274827 
L 436.558636 569.088432 
L 437.353449 580.508457 
L 438.148262 614.430962 
L 438.943075 610.539723 
L 439.737887 544.992904 
L 440.5327 510.206009 
L 441.327513 581.029207 
L 442.122326 573.167332 
L 442.917139 603.734021 
L 443.711952 589.994275 
L 444.506764 580.481123 
L 445.301577 612.854552 
L 446.09639 567.670488 
L 446.891203 583.723694 
L 447.686016 565.488365 
L 448.480829 563.29888 
L 449.275641 630.243381 
L 450.070454 622.083073 
L 450.865267 618.853017 
L 451.66008 517.617512 
L 452.454893 634.46077 
L 453.249705 563.139857 
L 454.044518 595.789934 
L 454.839331 584.400456 
L 455.634144 588.623402 
L 456.428957 540.72281 
L 457.22377 598.650613 
L 458.018582 646.543943 
L 458.813395 601.786289 
L 459.608208 527.651815 
L 460.403021 596.220124 
L 461.197834 583.257823 
L 461.992647 637.568109 
L 462.787459 579.080918 
L 463.582272 628.214629 
L 464.377085 560.789094 
L 465.171898 596.56514 
L 465.966711 601.316385 
L 466.761524 551.196755 
L 467.556336 557.87741 
L 468.351149 615.874876 
L 469.145962 569.99986 
L 469.940775 537.762916 
L 470.735588 514.922029 
L 471.5304 579.2854 
L 472.325213 593.355989 
L 473.120026 566.67107 
L 473.914839 623.296406 
L 474.709652 592.307002 
L 475.504465 589.372011 
L 476.299277 565.540811 
L 477.09409 577.08885 
L 477.888903 570.942149 
L 478.683716 600.440737 
L 479.478529 618.031271 
L 480.273342 550.157425 
L 481.068154 533.530831 
L 481.862967 573.427649 
L 482.65778 584.589108 
L 483.452593 607.716838 
L 484.247406 574.994221 
L 485.042218 573.935584 
L 485.837031 609.328654 
L 486.631844 577.595321 
L 487.426657 556.856203 
L 488.22147 589.573197 
L 489.016283 551.765334 
L 489.811095 617.62778 
L 490.605908 611.626245 
L 491.400721 559.780443 
L 492.195534 516.732373 
L 492.990347 601.354338 
L 493.78516 560.43238 
L 494.579972 606.918556 
L 495.374785 601.948106 
L 496.169598 610.0557 
L 496.964411 545.343577 
L 497.759224 627.951413 
L 498.554037 606.225485 
L 499.348849 595.783232 
L 500.143662 590.729002 
L 500.938475 591.287056 
L 501.733288 519.749059 
L 502.528101 601.490615 
L 503.322913 559.551896 
L 504.117726 614.577093 
L 504.912539 573.774823 
L 505.707352 609.363032 
L 506.502165 625.530205 
L 507.296978 558.379193 
L 508.09179 577.407066 
L 508.886603 580.611804 
L 509.681416 541.50726 
L 510.476229 572.955687 
L 511.271042 627.795664 
L 512.065855 619.943781 
L 512.860667 564.353562 
L 513.65548 585.659943 
L 514.450293 556.438118 
L 515.245106 544.715971 
L 516.039919 572.088898 
L 516.834732 543.074124 
L 517.629544 575.887949 
L 518.424357 516.926125 
L 519.21917 619.460254 
L 520.013983 585.393662 
L 520.808796 559.33739 
L 521.603608 545.156978 
L 522.398421 588.233098 
L 523.193234 596.409699 
L 523.988047 615.372459 
L 524.78286 617.21898 
L 525.577673 582.624819 
L 526.372485 575.44703 
L 527.167298 599.130278 
L 527.962111 642.126606 
L 528.756924 592.1596 
L 529.551737 516.797199 
L 530.34655 534.666471 
L 531.141362 557.149962 
L 531.936175 600.703678 
L 532.730988 534.346863 
L 533.525801 547.563577 
L 534.320614 608.494619 
L 535.115427 548.543165 
L 535.910239 577.470692 
L 536.705052 562.000443 
L 537.499865 542.208572 
L 538.294678 614.490768 
L 539.089491 549.497048 
L 539.884303 559.162345 
L 540.679116 602.537489 
L 541.473929 531.762996 
L 542.268742 579.550866 
L 543.858368 531.825258 
L 544.65318 603.169557 
L 545.447993 546.580478 
L 546.242806 559.981887 
L 547.037619 593.021399 
L 547.832432 533.103723 
L 548.627245 615.573507 
L 549.422057 550.364987 
L 550.21687 535.686951 
L 551.011683 603.518569 
L 551.806496 538.349146 
L 552.601309 577.776336 
L 553.396121 565.206865 
L 554.190934 531.679826 
L 554.985747 606.399793 
L 555.78056 550.127273 
L 556.575373 560.734161 
L 557.370186 595.987983 
L 558.164998 533.23442 
L 558.959811 582.713299 
L 560.549437 536.645797 
L 561.34425 610.150656 
L 562.139063 539.512088 
L 562.933875 564.6929 
L 563.728688 578.890644 
L 564.523501 542.149061 
L 565.318314 572.314975 
L 566.113127 560.180217 
L 566.90794 576.003829 
L 567.702752 580.106378 
L 568.497565 571.367101 
L 569.292378 575.477886 
L 570.087191 564.686518 
L 570.882004 593.064464 
L 571.676816 552.388121 
L 572.471629 651.500525 
L 573.266442 547.672431 
L 574.061255 560.708257 
L 574.856068 554.613711 
L 575.650881 568.111308 
L 576.445693 573.631123 
L 577.240506 567.358138 
L 578.035319 563.29198 
L 578.830132 571.740811 
L 579.624945 588.670258 
L 580.419758 565.25086 
L 581.21457 530.32004 
L 582.009383 587.531163 
L 582.804196 595.969353 
L 583.599009 571.113365 
L 584.393822 623.34921 
L 585.188635 599.463195 
L 585.983447 605.577439 
L 586.77826 571.074327 
L 587.573073 577.28439 
L 588.367886 575.263859 
L 589.162699 620.89806 
L 589.957511 593.24642 
L 590.752324 548.790211 
L 591.547137 520.315757 
L 592.34195 574.592148 
L 593.136763 582.395221 
L 593.931576 604.690479 
L 594.726388 582.431056 
L 595.521201 581.717512 
L 596.316014 622.340188 
L 597.110827 568.398729 
L 597.90564 572.268746 
L 598.700453 576.836819 
L 599.495265 552.36182 
L 600.290078 623.121576 
L 601.084891 620.218079 
L 601.879704 621.987201 
L 602.674517 528.043687 
L 603.469329 646.442668 
L 604.264142 583.313427 
L 605.853768 615.561639 
L 606.648581 615.346767 
L 607.443394 582.984317 
L 608.238206 630.156994 
L 609.033019 657.640657 
L 609.827832 628.259582 
L 610.622645 613.217233 
L 611.417458 635.789722 
L 612.212271 634.447053 
L 613.007083 653.906631 
L 613.801896 644.65117 
L 614.596709 648.342053 
L 615.391522 642.44832 
L 616.186335 654.805691 
L 616.981148 655.330398 
L 617.77596 654.876794 
L 618.570773 658.439125 
L 619.365586 654.914222 
L 620.160399 657.12675 
L 620.955212 656.019723 
L 622.544837 658.653335 
L 623.33965 658.896218 
L 624.134463 658.162075 
L 624.929276 657.946888 
L 625.724089 655.344671 
L 626.518901 657.125806 
L 627.313714 654.842435 
L 628.108527 658.775204 
L 628.90334 656.425655 
L 629.698153 655.365358 
L 630.492966 656.555757 
L 631.287778 658.014727 
L 632.082591 657.216821 
L 632.877404 656.007429 
L 633.672217 657.393013 
L 634.46703 657.659695 
L 635.261843 658.049128 
L 636.056655 658.165492 
L 636.851468 656.376135 
L 637.646281 657.255693 
L 637.646281 657.255693 
" clip-path="url(#pdfb38ba03e)" style="fill: none; stroke: #1f77b4; stroke-width: 1.5; stroke-linecap: square"/>
   </g>
   <g id="patch_3">
    <path d="M 172.8 667.0728 
L 172.8 487.188 
" style="fill: none; stroke: #000000; stroke-width: 0.8; stroke-linejoin: miter; stroke-linecap: square"/>
   </g>
   <g id="patch_4">
    <path d="M 659.781818 667.0728 
L 659.781818 487.188 
" style="fill: none; stroke: #000000; stroke-width: 0.8; stroke-linejoin: miter; stroke-linecap: square"/>
   </g>
   <g id="patch_5">
    <path d="M 172.8 667.0728 
L 659.781818 667.0728 
" style="fill: none; stroke: #000000; stroke-width: 0.8; stroke-linejoin: miter; stroke-linecap: square"/>
   </g>
   <g id="patch_6">
    <path d="M 172.8 487.188 
L 659.781818 487.188 
" style="fill: none; stroke: #000000; stroke-width: 0.8; stroke-linejoin: miter; stroke-linecap: square"/>
   </g>
  </g>
  <g id="axes_2">
   <g id="patch_7">
    <path d="M 757.178182 667.0728 
L 1244.16 667.0728 
L 1244.16 487.188 
L 757.178182 487.188 
z
" style="fill: #ffffff"/>
   </g>
   <g id="matplotlib.axis_3">
    <g id="xtick_7">
     <g id="line2d_12">
      <g>
       <use xlink:href="#mf743af0098" x="779.313719" y="667.0728" style="stroke: #000000; stroke-width: 0.8"/>
      </g>
     </g>
     <g id="text_13">
      <!-- $\mathdefault{0}$ -->
      <g transform="translate(775.6556 684.450525) scale(0.15 -0.15)">
       <use xlink:href="#CMR17-30" transform="scale(0.996264)"/>
      </g>
     </g>
    </g>
    <g id="xtick_8">
     <g id="line2d_13">
      <g>
       <use xlink:href="#mf743af0098" x="858.795002" y="667.0728" style="stroke: #000000; stroke-width: 0.8"/>
      </g>
     </g>
     <g id="text_14">
      <!-- $\mathdefault{100}$ -->
      <g transform="translate(847.820645 684.450525) scale(0.15 -0.15)">
       <use xlink:href="#CMR17-31" transform="scale(0.996264)"/>
       <use xlink:href="#CMR17-30" transform="translate(45.690477 0) scale(0.996264)"/>
       <use xlink:href="#CMR17-30" transform="translate(91.380954 0) scale(0.996264)"/>
      </g>
     </g>
    </g>
    <g id="xtick_9">
     <g id="line2d_14">
      <g>
       <use xlink:href="#mf743af0098" x="938.276284" y="667.0728" style="stroke: #000000; stroke-width: 0.8"/>
      </g>
     </g>
     <g id="text_15">
      <!-- $\mathdefault{200}$ -->
      <g transform="translate(927.301927 684.450525) scale(0.15 -0.15)">
       <use xlink:href="#CMR17-32" transform="scale(0.996264)"/>
       <use xlink:href="#CMR17-30" transform="translate(45.690477 0) scale(0.996264)"/>
       <use xlink:href="#CMR17-30" transform="translate(91.380954 0) scale(0.996264)"/>
      </g>
     </g>
    </g>
    <g id="xtick_10">
     <g id="line2d_15">
      <g>
       <use xlink:href="#mf743af0098" x="1017.757567" y="667.0728" style="stroke: #000000; stroke-width: 0.8"/>
      </g>
     </g>
     <g id="text_16">
      <!-- $\mathdefault{300}$ -->
      <g transform="translate(1006.78321 684.450525) scale(0.15 -0.15)">
       <use xlink:href="#CMR17-33" transform="scale(0.996264)"/>
       <use xlink:href="#CMR17-30" transform="translate(45.690477 0) scale(0.996264)"/>
       <use xlink:href="#CMR17-30" transform="translate(91.380954 0) scale(0.996264)"/>
      </g>
     </g>
    </g>
    <g id="xtick_11">
     <g id="line2d_16">
      <g>
       <use xlink:href="#mf743af0098" x="1097.238849" y="667.0728" style="stroke: #000000; stroke-width: 0.8"/>
      </g>
     </g>
     <g id="text_17">
      <!-- $\mathdefault{400}$ -->
      <g transform="translate(1086.264492 684.450525) scale(0.15 -0.15)">
       <use xlink:href="#CMR17-34" transform="scale(0.996264)"/>
       <use xlink:href="#CMR17-30" transform="translate(45.690477 0) scale(0.996264)"/>
       <use xlink:href="#CMR17-30" transform="translate(91.380954 0) scale(0.996264)"/>
      </g>
     </g>
    </g>
    <g id="xtick_12">
     <g id="line2d_17">
      <g>
       <use xlink:href="#mf743af0098" x="1176.720132" y="667.0728" style="stroke: #000000; stroke-width: 0.8"/>
      </g>
     </g>
     <g id="text_18">
      <!-- $\mathdefault{500}$ -->
      <g transform="translate(1165.745775 684.450525) scale(0.15 -0.15)">
       <use xlink:href="#CMR17-35" transform="scale(0.996264)"/>
       <use xlink:href="#CMR17-30" transform="translate(45.690477 0) scale(0.996264)"/>
       <use xlink:href="#CMR17-30" transform="translate(91.380954 0) scale(0.996264)"/>
      </g>
     </g>
    </g>
    <g id="text_19">
     <!-- Sample [\#] -->
     <g transform="translate(964.900817 702.56424) scale(0.15 -0.15)">
      <use xlink:href="#CMR17-53" transform="scale(0.996264)"/>
      <use xlink:href="#CMR17-61" transform="translate(50.89537 0) scale(0.996264)"/>
      <use xlink:href="#CMR17-6d" transform="translate(96.585847 0) scale(0.996264)"/>
      <use xlink:href="#CMR17-70" transform="translate(173.505437 0) scale(0.996264)"/>
      <use xlink:href="#CMR17-6c" transform="translate(224.400807 0) scale(0.996264)"/>
      <use xlink:href="#CMR17-65" transform="translate(249.271865 0) scale(0.996264)"/>
      <use xlink:href="#CMR17-5b" transform="translate(319.833492 0) scale(0.996264)"/>
      <use xlink:href="#CMR17-23" transform="translate(344.70455 0) scale(0.996264)"/>
      <use xlink:href="#CMR17-5d" transform="translate(421.62414 0) scale(0.996264)"/>
     </g>
    </g>
   </g>
   <g id="matplotlib.axis_4">
    <g id="ytick_5">
     <g id="line2d_18">
      <g>
       <use xlink:href="#m257e709246" x="757.178182" y="629.379427" style="stroke: #000000; stroke-width: 0.8"/>
      </g>
     </g>
     <g id="text_20">
      <!-- $\mathdefault{−2}$ -->
      <g transform="translate(731.238828 634.56829) scale(0.15 -0.15)">
       <defs>
        <path id="CMSY10-0" d="M 4218 1472 
C 4326 1472 4442 1472 4442 1600 
C 4442 1728 4326 1728 4218 1728 
L 755 1728 
C 646 1728 531 1728 531 1600 
C 531 1472 646 1472 755 1472 
L 4218 1472 
z
" transform="scale(0.015625)"/>
       </defs>
       <use xlink:href="#CMSY10-0" transform="scale(0.996264)"/>
       <use xlink:href="#CMR17-32" transform="translate(77.487468 0) scale(0.996264)"/>
      </g>
     </g>
    </g>
    <g id="ytick_6">
     <g id="line2d_19">
      <g>
       <use xlink:href="#m257e709246" x="757.178182" y="577.185999" style="stroke: #000000; stroke-width: 0.8"/>
      </g>
     </g>
     <g id="text_21">
      <!-- $\mathdefault{0}$ -->
      <g transform="translate(742.861944 582.374862) scale(0.15 -0.15)">
       <use xlink:href="#CMR17-30" transform="scale(0.996264)"/>
      </g>
     </g>
    </g>
    <g id="ytick_7">
     <g id="line2d_20">
      <g>
       <use xlink:href="#m257e709246" x="757.178182" y="524.992571" style="stroke: #000000; stroke-width: 0.8"/>
      </g>
     </g>
     <g id="text_22">
      <!-- $\mathdefault{2}$ -->
      <g transform="translate(742.861944 530.181434) scale(0.15 -0.15)">
       <use xlink:href="#CMR17-32" transform="scale(0.996264)"/>
      </g>
     </g>
    </g>
    <g id="text_23">
     <!-- Phase rotation [Radian] -->
     <g transform="translate(723.502838 653.379272) rotate(-90) scale(0.15 -0.15)">
      <defs>
       <path id="CMR17-50" d="M 1267 2048 
L 2291 2048 
C 3117 2048 3718 2583 3718 3187 
C 3718 3791 3130 4352 2291 4352 
L 333 4352 
L 333 4185 
C 774 4185 845 4185 845 3899 
L 845 453 
C 845 166 774 166 333 166 
L 333 0 
C 518 12 858 12 1056 12 
C 1254 12 1594 12 1779 0 
L 1779 166 
C 1338 166 1267 166 1267 453 
L 1267 2048 
z
M 1254 2182 
L 1254 3937 
C 1254 4153 1267 4185 1523 4185 
L 2170 4185 
C 2995 4185 3232 3715 3232 3187 
C 3232 2608 2950 2182 2170 2182 
L 1254 2182 
z
" transform="scale(0.015625)"/>
       <path id="CMR17-68" d="M 2656 1954 
C 2656 2282 2592 2816 1837 2816 
C 1312 2816 1056 2392 979 2179 
L 973 2179 
L 973 4416 
L 211 4345 
L 211 4179 
C 589 4179 646 4141 646 3843 
L 646 443 
C 646 198 621 166 211 166 
L 211 0 
C 365 12 646 12 813 12 
C 979 12 1267 12 1421 0 
L 1421 166 
C 1011 166 986 192 986 443 
L 986 1678 
C 986 2269 1344 2713 1792 2713 
C 2266 2713 2317 2289 2317 1980 
L 2317 443 
C 2317 198 2291 166 1882 166 
L 1882 0 
C 2035 12 2317 12 2483 12 
C 2650 12 2938 12 3091 0 
L 3091 166 
C 2682 166 2656 192 2656 443 
L 2656 1954 
z
" transform="scale(0.015625)"/>
       <path id="CMR17-73" d="M 1978 2688 
C 1978 2803 1971 2809 1933 2809 
C 1907 2809 1901 2803 1824 2707 
C 1805 2681 1747 2617 1728 2592 
C 1523 2809 1235 2816 1126 2816 
C 416 2816 160 2444 160 2073 
C 160 1497 813 1363 998 1324 
C 1402 1241 1542 1216 1677 1100 
C 1760 1024 1901 883 1901 652 
C 1901 384 1747 38 1158 38 
C 602 38 403 460 288 1024 
C 269 1113 269 1120 218 1120 
C 166 1120 160 1113 160 985 
L 160 64 
C 160 -52 166 -58 205 -58 
C 237 -58 243 -52 275 0 
C 314 57 410 211 448 275 
C 576 102 800 -64 1158 -64 
C 1792 -64 2131 281 2131 780 
C 2131 1107 1958 1280 1875 1356 
C 1683 1555 1459 1600 1190 1651 
C 838 1728 390 1817 390 2208 
C 390 2374 480 2726 1126 2726 
C 1811 2726 1850 2086 1862 1881 
C 1869 1849 1901 1843 1920 1843 
C 1978 1843 1978 1862 1978 1971 
L 1978 2688 
z
" transform="scale(0.015625)"/>
       <path id="CMR17-72" d="M 960 1517 
C 960 2134 1222 2713 1702 2713 
C 1747 2713 1792 2707 1837 2687 
C 1837 2687 1696 2642 1696 2475 
C 1696 2321 1818 2257 1914 2257 
C 1990 2257 2131 2302 2131 2482 
C 2131 2687 1926 2816 1709 2816 
C 1222 2816 1011 2340 947 2115 
L 941 2115 
L 941 2816 
L 198 2745 
L 198 2578 
C 576 2578 634 2540 634 2231 
L 634 443 
C 634 198 608 166 198 166 
L 198 0 
C 352 12 646 12 813 12 
C 998 12 1325 12 1498 0 
L 1498 166 
C 1037 166 960 166 960 455 
L 960 1517 
z
" transform="scale(0.015625)"/>
       <path id="CMR17-6f" d="M 2758 1356 
C 2758 2176 2163 2816 1466 2816 
C 768 2816 173 2176 173 1356 
C 173 550 768 -64 1466 -64 
C 2163 -64 2758 550 2758 1356 
z
M 1466 51 
C 1165 51 909 230 762 480 
C 602 768 582 1126 582 1408 
C 582 1676 595 2009 762 2297 
C 890 2508 1139 2713 1466 2713 
C 1754 2713 1997 2553 2150 2329 
C 2349 2028 2349 1606 2349 1408 
C 2349 1158 2336 774 2163 467 
C 1984 172 1709 51 1466 51 
z
" transform="scale(0.015625)"/>
       <path id="CMR17-6e" d="M 2656 1954 
C 2656 2282 2592 2816 1837 2816 
C 1331 2816 1069 2424 973 2166 
L 966 2166 
L 966 2816 
L 211 2745 
L 211 2578 
C 589 2578 646 2540 646 2231 
L 646 443 
C 646 198 621 166 211 166 
L 211 0 
C 365 12 646 12 813 12 
C 979 12 1267 12 1421 0 
L 1421 166 
C 1011 166 986 192 986 443 
L 986 1678 
C 986 2269 1344 2713 1792 2713 
C 2266 2713 2317 2289 2317 1980 
L 2317 443 
C 2317 198 2291 166 1882 166 
L 1882 0 
C 2035 12 2317 12 2483 12 
C 2650 12 2938 12 3091 0 
L 3091 166 
C 2682 166 2656 192 2656 443 
L 2656 1954 
z
" transform="scale(0.015625)"/>
       <path id="CMR17-52" d="M 2509 2156 
C 3117 2278 3629 2689 3629 3203 
C 3629 3806 2950 4352 2054 4352 
L 333 4352 
L 333 4185 
C 774 4185 845 4185 845 3896 
L 845 428 
C 845 140 774 140 333 140 
L 333 -26 
C 518 -13 851 -13 1050 -13 
C 1248 -13 1581 -13 1766 -26 
L 1766 140 
C 1325 140 1254 140 1254 428 
L 1254 2112 
L 2003 2112 
C 2368 2112 2573 1964 2662 1881 
C 2918 1632 2918 1459 2918 1024 
C 2918 595 2918 377 3110 160 
C 3354 -103 3680 -128 3821 -128 
C 4294 -128 4365 403 4365 512 
C 4365 550 4365 595 4307 595 
C 4256 595 4250 556 4250 531 
C 4218 115 4032 -26 3834 -26 
C 3482 -26 3443 377 3405 768 
C 3386 902 3373 998 3360 1139 
C 3322 1459 3270 1926 2509 2156 
z
M 1984 2214 
L 1254 2214 
L 1254 3935 
C 1254 4153 1267 4185 1523 4185 
L 1990 4185 
C 2522 4185 3142 3999 3142 3203 
C 3142 2374 2464 2214 1984 2214 
z
" transform="scale(0.015625)"/>
      </defs>
      <use xlink:href="#CMR17-50" transform="scale(0.996264)"/>
      <use xlink:href="#CMR17-68" transform="translate(62.586301 0) scale(0.996264)"/>
      <use xlink:href="#CMR17-61" transform="translate(113.48167 0) scale(0.996264)"/>
      <use xlink:href="#CMR17-73" transform="translate(159.172147 0) scale(0.996264)"/>
      <use xlink:href="#CMR17-65" transform="translate(194.973485 0) scale(0.996264)"/>
      <use xlink:href="#CMR17-72" transform="translate(265.535112 0) scale(0.996264)"/>
      <use xlink:href="#CMR17-6f" transform="translate(300.81588 0) scale(0.996264)"/>
      <use xlink:href="#CMR17-74" transform="translate(346.506357 0) scale(0.996264)"/>
      <use xlink:href="#CMR17-61" transform="translate(381.787125 0) scale(0.996264)"/>
      <use xlink:href="#CMR17-74" transform="translate(427.477602 0) scale(0.996264)"/>
      <use xlink:href="#CMR17-69" transform="translate(462.758369 0) scale(0.996264)"/>
      <use xlink:href="#CMR17-6f" transform="translate(487.629428 0) scale(0.996264)"/>
      <use xlink:href="#CMR17-6e" transform="translate(533.319905 0) scale(0.996264)"/>
      <use xlink:href="#CMR17-5b" transform="translate(614.291241 0) scale(0.996264)"/>
      <use xlink:href="#CMR17-52" transform="translate(639.1623 0) scale(0.996264)"/>
      <use xlink:href="#CMR17-61" transform="translate(706.953402 0) scale(0.996264)"/>
      <use xlink:href="#CMR17-64" transform="translate(752.643879 0) scale(0.996264)"/>
      <use xlink:href="#CMR17-69" transform="translate(803.539249 0) scale(0.996264)"/>
      <use xlink:href="#CMR17-61" transform="translate(828.410307 0) scale(0.996264)"/>
      <use xlink:href="#CMR17-6e" transform="translate(874.100784 0) scale(0.996264)"/>
      <use xlink:href="#CMR17-5d" transform="translate(924.996154 0) scale(0.996264)"/>
     </g>
    </g>
   </g>
   <g id="line2d_21">
    <path d="M 779.313719 577.185999 
L 780.108532 581.490891 
L 780.903345 501.905902 
L 781.698157 521.231395 
L 782.49297 573.838869 
L 783.287783 504.667305 
L 784.082596 586.227849 
L 784.877409 554.568159 
L 785.672222 609.046583 
L 786.467034 643.097315 
L 787.261847 496.623131 
L 788.05666 606.834185 
L 788.851473 554.129712 
L 789.646286 627.19361 
L 790.441099 506.064069 
L 791.235911 574.72562 
L 792.030724 617.966495 
L 792.825537 557.921549 
L 793.62035 576.1852 
L 794.415163 621.217684 
L 795.209976 580.278454 
L 796.004788 528.816576 
L 796.799601 580.198614 
L 797.594414 570.900743 
L 798.389227 527.287858 
L 799.18404 575.163371 
L 799.978852 571.026651 
L 800.773665 535.570668 
L 801.568478 569.098745 
L 802.363291 571.238844 
L 803.158104 523.384647 
L 803.952917 561.084386 
L 804.747729 569.391076 
L 805.542542 583.835264 
L 806.337355 511.000495 
L 807.132168 551.131097 
L 807.926981 643.222426 
L 808.721794 615.095542 
L 809.516606 631.806134 
L 810.311419 606.47447 
L 811.106232 632.674767 
L 811.901045 630.706443 
L 812.695858 607.227387 
L 813.490671 644.220786 
L 814.285483 614.627235 
L 815.080296 601.448634 
L 815.875109 647.422896 
L 816.669922 612.911302 
L 817.464735 607.801349 
L 818.259547 501.360791 
L 819.05436 568.981424 
L 819.849173 528.074644 
L 820.643986 551.710462 
L 821.438799 646.345716 
L 822.233612 613.324006 
L 823.028424 642.177239 
L 823.823237 607.808989 
L 824.61805 645.896243 
L 825.412863 621.158998 
L 826.207676 606.281714 
L 827.002489 655.887213 
L 827.797301 627.190922 
L 828.592114 608.301779 
L 829.386927 502.399806 
L 830.18174 626.408326 
L 830.976553 622.922446 
L 831.771365 499.064049 
L 832.566178 544.411226 
L 834.155804 570.091443 
L 834.950617 506.424232 
L 835.74543 597.020703 
L 836.540242 521.597755 
L 837.335055 612.95614 
L 838.129868 623.344219 
L 838.924681 658.738753 
L 839.719494 620.891828 
L 840.514307 649.363855 
L 841.309119 635.119243 
L 842.103932 613.996399 
L 842.898745 655.014872 
L 843.693558 631.094194 
L 844.488371 616.59727 
L 845.283184 658.896218 
L 846.077996 598.705057 
L 846.872809 514.019057 
L 847.667622 554.301699 
L 848.462435 638.587403 
L 849.257248 609.60769 
L 850.05206 639.144192 
L 850.846873 605.169704 
L 851.641686 631.745557 
L 852.436499 639.052506 
L 853.231312 617.516723 
L 854.026125 499.301926 
L 854.820937 624.185052 
L 855.61575 612.462616 
L 856.410563 495.379614 
L 857.205376 619.72616 
L 858.000189 614.588329 
L 858.795002 499.914464 
L 859.589814 588.300378 
L 860.384627 508.212045 
L 861.17944 556.755234 
L 861.974253 656.210131 
L 863.563879 518.809753 
L 864.358691 583.68967 
L 865.153504 612.498653 
L 865.948317 654.316969 
L 866.74313 609.283054 
L 867.537943 619.264044 
L 868.332755 639.014676 
L 869.127568 605.574877 
L 869.922381 636.512858 
L 870.717194 627.974662 
L 871.512007 605.572886 
L 872.30682 655.563049 
L 873.101632 612.156596 
L 873.896445 506.015451 
L 874.691258 552.618489 
L 875.486071 622.951714 
L 876.280884 622.865503 
L 877.075697 531.019393 
L 877.870509 583.702413 
L 878.665322 616.179155 
L 879.460135 498.204475 
L 880.254948 623.090687 
L 881.049761 620.631577 
L 881.844573 499.090479 
L 882.639386 613.529007 
L 883.434199 623.551708 
L 884.229012 499.079728 
L 885.023825 615.420178 
L 885.818638 642.608868 
L 886.61345 636.995283 
L 887.408263 531.192811 
L 888.997889 600.499962 
L 889.792702 650.955129 
L 890.587515 581.992524 
L 891.382327 540.923728 
L 892.17714 617.277602 
L 892.971953 503.556738 
L 893.766766 616.836093 
L 894.561579 608.069128 
L 895.356392 508.274961 
L 896.151204 611.059244 
L 896.946017 602.685407 
L 897.74083 656.420682 
L 898.535643 613.944234 
L 899.330456 602.5096 
L 900.125268 497.92165 
L 900.920081 517.423306 
L 901.714894 566.886844 
L 902.509707 567.607196 
L 903.30452 496.11231 
L 904.099333 599.082355 
L 904.894145 525.731041 
L 905.688958 623.293274 
L 906.483771 648.32718 
L 907.278584 632.58537 
L 908.073397 613.43951 
L 908.86821 496.928131 
L 909.663022 628.04624 
L 910.457835 609.118795 
L 911.252648 498.379984 
L 912.047461 627.341219 
L 912.842274 609.693005 
L 913.637087 506.357408 
L 914.431899 590.536394 
L 915.226712 523.441367 
L 916.021525 574.358749 
L 916.816338 654.222993 
L 917.611151 608.80063 
L 918.405963 532.914447 
L 919.200776 602.453254 
L 919.995589 617.908357 
L 920.790402 657.655314 
L 921.585215 617.061377 
L 923.17484 646.479911 
L 923.969653 616.032218 
L 924.764466 648.526482 
L 925.559279 638.304578 
L 926.354092 615.904793 
L 927.148905 497.100155 
L 927.943717 612.403383 
L 928.73853 511.881099 
L 929.533343 556.813272 
L 930.328156 624.272458 
L 931.122969 620.864228 
L 931.917782 526.663237 
L 932.712594 576.435583 
L 933.507407 610.020329 
L 934.30222 498.201588 
L 935.097033 625.64228 
L 935.891846 605.737643 
L 936.686658 502.416381 
L 937.481471 614.809134 
L 938.276284 617.63957 
L 939.071097 500.538251 
L 939.86591 616.84336 
L 940.660723 655.214919 
L 941.455535 548.603893 
L 942.250348 549.913189 
L 943.045161 501.244665 
L 943.839974 578.464434 
L 944.634787 553.738538 
L 945.4296 582.739754 
L 946.224412 642.26014 
L 947.019225 563.176178 
L 947.814038 497.50274 
L 948.608851 569.297971 
L 949.403664 566.585006 
L 950.198476 557.924461 
L 950.993289 581.602682 
L 951.788102 582.432141 
L 952.582915 608.315219 
L 953.377728 551.442891 
L 954.172541 635.448857 
L 954.967353 567.168972 
L 955.762166 620.198629 
L 956.556979 606.302893 
L 957.351792 624.039508 
L 958.146605 620.678863 
L 958.941418 614.177582 
L 959.73623 624.716854 
L 960.531043 614.988923 
L 961.325856 621.515292 
L 962.120669 605.174582 
L 962.915482 568.749246 
L 963.710295 495.364582 
L 964.505107 615.348302 
L 965.29992 596.803333 
L 966.094733 511.55935 
L 966.889546 554.959034 
L 967.684359 535.579827 
L 968.479171 552.190121 
L 969.273984 560.863408 
L 970.068797 524.992372 
L 970.86361 555.628017 
L 971.658423 549.220114 
L 972.453236 521.869853 
L 973.248048 559.195529 
L 974.042861 511.357858 
L 974.837674 554.456899 
L 975.632487 550.970023 
L 976.4273 510.810527 
L 977.222113 548.555113 
L 978.016925 530.162258 
L 978.811738 535.151558 
L 979.606551 556.356731 
L 980.401364 505.186887 
L 981.196177 555.762909 
L 981.99099 544.994172 
L 982.785802 512.092147 
L 983.580615 553.634308 
L 984.375428 525.311732 
L 985.170241 551.063601 
L 985.965054 556.62094 
L 986.759866 522.57806 
L 987.554679 560.212742 
L 989.144305 535.835573 
L 989.939118 567.459163 
L 990.733931 520.790322 
L 991.528743 554.311156 
L 992.323556 553.649938 
L 993.118369 518.396517 
L 993.913182 549.157995 
L 994.707995 527.28792 
L 995.502808 536.782603 
L 996.29762 553.314351 
L 997.092433 511.648548 
L 997.887246 548.149045 
L 998.682059 624.51367 
L 999.476872 626.660688 
L 1000.271684 619.499183 
L 1001.066497 609.879066 
L 1001.86131 607.139122 
L 1002.656123 609.48793 
L 1003.450936 618.305068 
L 1004.245749 595.831515 
L 1005.040561 651.598428 
L 1005.835374 647.722607 
L 1006.630187 560.941257 
L 1007.425 548.016144 
L 1008.219813 556.491324 
L 1009.014626 548.065521 
L 1009.809438 576.9863 
L 1010.604251 593.960154 
L 1011.399064 591.713884 
L 1012.193877 543.347099 
L 1012.98869 596.886956 
L 1013.783503 517.195533 
L 1014.578315 547.973337 
L 1015.373128 640.022432 
L 1016.167941 558.270999 
L 1016.962754 637.282189 
L 1017.757567 546.824418 
L 1018.552379 545.118312 
L 1019.347192 568.906337 
L 1020.142005 504.754935 
L 1020.936818 552.977371 
L 1021.731631 634.14653 
L 1022.526444 632.035052 
L 1023.321256 581.958875 
L 1024.116069 601.976106 
L 1024.910882 505.564186 
L 1025.705695 526.810573 
L 1026.500508 626.046756 
L 1027.295321 559.847887 
L 1028.090133 606.885466 
L 1028.884946 608.162806 
L 1029.679759 591.971821 
L 1030.474572 601.005881 
L 1031.269385 577.968769 
L 1032.064198 562.602266 
L 1032.85901 645.887682 
L 1033.653823 626.255814 
L 1034.448636 639.29989 
L 1035.243449 629.047723 
L 1036.038262 641.161097 
L 1036.833074 496.096183 
L 1037.627887 548.25427 
L 1038.4227 522.160543 
L 1039.217513 611.839725 
L 1040.012326 528.168151 
L 1040.807139 539.231559 
L 1041.601951 639.609593 
L 1042.396764 632.974515 
L 1043.191577 568.652681 
L 1043.98639 611.906722 
L 1044.781203 513.813584 
L 1045.576016 545.412684 
L 1046.370828 557.187684 
L 1047.165641 622.254558 
L 1047.960454 585.386219 
L 1048.755267 592.752102 
L 1049.55008 621.614245 
L 1050.344893 613.973602 
L 1051.139705 577.418551 
L 1051.934518 565.067748 
L 1052.729331 606.983624 
L 1053.524144 621.144663 
L 1054.318957 653.928023 
L 1055.113769 559.713394 
L 1055.908582 639.330253 
L 1056.703395 559.552221 
L 1057.498208 625.748701 
L 1058.293021 539.63723 
L 1059.087834 545.466143 
L 1059.882646 581.898249 
L 1060.677459 508.281133 
L 1061.472272 554.992085 
L 1062.267085 640.948854 
L 1063.061898 644.86569 
L 1063.856711 596.433799 
L 1064.651523 606.234203 
L 1065.446336 514.565394 
L 1066.241149 541.816004 
L 1067.035962 629.702072 
L 1067.830775 567.3846 
L 1068.625587 590.110913 
L 1069.4204 608.85598 
L 1070.215213 595.57109 
L 1071.010026 602.2213 
L 1071.804839 568.337104 
L 1072.599652 550.780478 
L 1073.394464 628.466942 
L 1074.189277 623.600886 
L 1074.98409 637.505781 
L 1075.778903 629.078982 
L 1076.573716 647.999857 
L 1077.368529 544.88586 
L 1078.163341 636.48578 
L 1078.958154 510.471655 
L 1079.752967 594.413112 
L 1080.54778 547.616745 
L 1081.342593 515.841439 
L 1082.137406 579.742072 
L 1082.932218 630.579814 
L 1084.521844 602.753898 
L 1085.316657 582.747718 
L 1086.11147 501.069455 
L 1086.906282 531.6165 
L 1087.701095 645.274945 
L 1088.495908 566.406411 
L 1089.290721 614.16464 
L 1090.085534 621.473281 
L 1090.880347 601.424095 
L 1091.675159 594.459901 
L 1092.469972 566.112735 
L 1093.264785 561.55708 
L 1094.059598 642.574921 
L 1094.854411 647.866458 
L 1095.649224 605.686075 
L 1096.444036 503.187304 
L 1097.238849 605.287074 
L 1098.033662 650.936016 
L 1098.828475 555.045046 
L 1099.623288 550.019509 
L 1100.418101 550.740857 
L 1101.212913 566.416366 
L 1102.007726 566.157135 
L 1102.802539 600.259547 
L 1103.597352 522.540429 
L 1104.392165 580.474967 
L 1105.186977 619.145777 
L 1105.98179 538.644208 
L 1107.571416 626.937639 
L 1108.366229 632.14635 
L 1109.161042 607.273118 
L 1109.955854 631.304546 
L 1110.750667 639.636173 
L 1111.54548 636.725898 
L 1112.340293 632.434052 
L 1113.135106 585.627929 
L 1113.929919 644.684806 
L 1114.724731 658.193288 
L 1115.519544 613.283414 
L 1116.314357 602.509401 
L 1117.10917 522.267659 
L 1117.903983 552.56722 
L 1118.698795 534.461271 
L 1119.493608 538.108623 
L 1120.288421 544.263069 
L 1121.083234 510.820482 
L 1121.878047 555.575056 
L 1122.67286 545.179536 
L 1123.467672 512.751972 
L 1124.262485 552.063094 
L 1125.057298 511.505194 
L 1125.852111 549.470187 
L 1126.646924 551.066787 
L 1127.441737 522.050439 
L 1128.236549 555.328369 
L 1129.031362 535.114525 
L 1129.826175 535.796848 
L 1130.620988 554.872027 
L 1131.415801 514.128564 
L 1132.210614 556.432987 
L 1133.005426 544.703881 
L 1133.800239 526.84442 
L 1134.595052 566.534035 
L 1135.389865 538.521163 
L 1136.184678 544.59975 
L 1136.97949 560.352512 
L 1137.774303 513.355848 
L 1138.569116 559.967349 
L 1139.363929 543.283685 
L 1140.158742 517.255064 
L 1140.953555 551.644282 
L 1141.748367 513.177254 
L 1142.54318 551.293664 
L 1143.337993 548.40499 
L 1144.132806 511.746108 
L 1144.927619 554.742909 
L 1145.722432 530.968721 
L 1146.517244 532.17528 
L 1147.312057 557.088332 
L 1148.10687 518.076858 
L 1148.901683 546.270516 
L 1149.696496 608.856776 
L 1150.491309 621.072787 
L 1151.286121 624.130498 
L 1152.080934 607.025336 
L 1152.875747 601.778696 
L 1153.67056 614.675636 
L 1154.465373 618.028117 
L 1155.260185 607.565599 
L 1156.054998 650.678875 
L 1156.849811 498.600688 
L 1157.644624 560.05565 
L 1158.439437 564.602645 
L 1159.23425 565.566399 
L 1160.029062 560.645192 
L 1160.823875 590.813843 
L 1161.618688 598.20531 
L 1162.413501 591.718663 
L 1163.208314 553.383141 
L 1164.003127 599.375235 
L 1164.797939 524.322891 
L 1165.592752 554.304386 
L 1166.387565 637.722304 
L 1167.182378 560.744842 
L 1167.977191 627.792086 
L 1168.772004 547.831377 
L 1169.566816 539.501641 
L 1170.361629 580.53858 
L 1171.156442 508.052763 
L 1171.951255 558.040438 
L 1172.746068 633.845985 
L 1173.54088 638.461272 
L 1174.335693 577.202923 
L 1175.130506 601.600699 
L 1175.925319 500.20565 
L 1176.720132 534.752557 
L 1177.514945 630.829787 
L 1178.309757 567.96767 
L 1179.10457 599.924259 
L 1179.899383 605.821564 
L 1180.694196 602.666393 
L 1181.489009 594.72839 
L 1183.078634 558.804891 
L 1183.873447 644.610342 
L 1184.66826 630.251694 
L 1185.463073 633.113986 
L 1186.257886 626.651031 
L 1187.052698 634.107506 
L 1187.847511 626.270647 
L 1189.437137 508.498951 
L 1190.23195 603.319547 
L 1191.026763 525.66912 
L 1191.821575 533.843656 
L 1192.616388 636.836798 
L 1193.411201 633.704125 
L 1194.206014 589.233669 
L 1195.000827 622.836135 
L 1195.79564 523.660777 
L 1196.590452 546.178232 
L 1197.385265 585.215589 
L 1198.180078 597.693717 
L 1198.974891 589.050097 
L 1199.769704 574.962626 
L 1200.564517 647.599064 
L 1201.359329 517.534205 
L 1202.154142 644.656334 
L 1202.948955 615.644765 
L 1203.743768 568.472892 
L 1204.538581 599.388276 
L 1205.333393 510.215211 
L 1206.128206 538.403095 
L 1206.923019 513.647732 
L 1207.717832 513.837178 
L 1208.512645 502.230917 
L 1209.307458 565.161923 
L 1210.10227 508.778391 
L 1210.897083 577.609091 
L 1211.691896 548.473083 
L 1212.486709 579.28135 
L 1213.281522 552.846362 
L 1214.076335 595.611607 
L 1214.871147 576.333842 
L 1215.66596 593.518745 
L 1216.460773 573.436508 
L 1217.255586 576.550366 
L 1218.050399 528.044707 
L 1218.845212 575.722698 
L 1219.640024 565.048833 
L 1220.434837 524.061371 
L 1221.22965 502.132362 
L 1222.024463 585.936239 
L 1222.024463 585.936239 
" clip-path="url(#p9352aa11c9)" style="fill: none; stroke: #1f77b4; stroke-width: 1.5; stroke-linecap: square"/>
   </g>
   <g id="patch_8">
    <path d="M 757.178182 667.0728 
L 757.178182 487.188 
" style="fill: none; stroke: #000000; stroke-width: 0.8; stroke-linejoin: miter; stroke-linecap: square"/>
   </g>
   <g id="patch_9">
    <path d="M 1244.16 667.0728 
L 1244.16 487.188 
" style="fill: none; stroke: #000000; stroke-width: 0.8; stroke-linejoin: miter; stroke-linecap: square"/>
   </g>
   <g id="patch_10">
    <path d="M 757.178182 667.0728 
L 1244.16 667.0728 
" style="fill: none; stroke: #000000; stroke-width: 0.8; stroke-linejoin: miter; stroke-linecap: square"/>
   </g>
   <g id="patch_11">
    <path d="M 757.178182 487.188 
L 1244.16 487.188 
" style="fill: none; stroke: #000000; stroke-width: 0.8; stroke-linejoin: miter; stroke-linecap: square"/>
   </g>
  </g>
 </g>
 <defs>
  <clipPath id="pdfb38ba03e">
   <rect x="172.8" y="487.188" width="486.981818" height="179.8848"/>
  </clipPath>
  <clipPath id="p9352aa11c9">
   <rect x="757.178182" y="487.188" width="486.981818" height="179.8848"/>
  </clipPath>
 </defs>
</svg>
